<svg height='100px' width='100px'  fill="#000000" xmlns="http://www.w3.org/2000/svg" xmlns:xlink="http://www.w3.org/1999/xlink" version="1.1" x="0px" y="0px" viewBox="7.5 7.5 50 50" enable-background="new 7.5 7.5 50 50" xml:space="preserve"><path d="M28.062,36.582c-1.241,0-2.25,1.178-2.25,2.625s1.009,2.625,2.25,2.625c1.239,0,2.247-1.178,2.247-2.625  S29.301,36.582,28.062,36.582z M28.062,40.832c-0.689,0-1.25-0.729-1.25-1.625s0.561-1.625,1.25-1.625  c0.688,0,1.247,0.729,1.247,1.625S28.749,40.832,28.062,40.832z"></path><path d="M33.1,36.582c-0.276,0-0.5,0.224-0.5,0.5v4.25c0,0.276,0.224,0.5,0.5,0.5s0.5-0.224,0.5-0.5v-4.25  C33.6,36.806,33.376,36.582,33.1,36.582z"></path><path d="M38.14,36.582c-1.239,0-2.247,1.178-2.247,2.625s1.008,2.625,2.247,2.625c1.24,0,2.249-1.178,2.249-2.625  S39.38,36.582,38.14,36.582z M38.14,40.832c-0.688,0-1.247-0.729-1.247-1.625s0.56-1.625,1.247-1.625  c0.688,0,1.249,0.729,1.249,1.625S38.828,40.832,38.14,40.832z"></path><path d="M43.18,41.832c0.276,0,0.5-0.224,0.5-0.5v-4.25c0-0.276-0.224-0.5-0.5-0.5s-0.5,0.224-0.5,0.5v4.25  C42.68,41.608,42.903,41.832,43.18,41.832z"></path><path d="M46.47,36.582c-0.276,0-0.5,0.224-0.5,0.5v4.25c0,0.276,0.224,0.5,0.5,0.5s0.5-0.224,0.5-0.5v-4.25  C46.97,36.806,46.746,36.582,46.47,36.582z"></path><path d="M49.763,36.582c-0.276,0-0.5,0.224-0.5,0.5v4.25c0,0.276,0.224,0.5,0.5,0.5s0.5-0.224,0.5-0.5v-4.25  C50.263,36.806,50.039,36.582,49.763,36.582z"></path><path d="M54.803,41.832c1.239,0,2.248-1.178,2.248-2.625s-1.009-2.625-2.248-2.625c-1.24,0-2.25,1.178-2.25,2.625  S53.563,41.832,54.803,41.832z M54.803,37.582c0.688,0,1.248,0.729,1.248,1.625s-0.56,1.625-1.248,1.625  c-0.689,0-1.25-0.729-1.25-1.625S54.113,37.582,54.803,37.582z"></path><path d="M54.803,44.121c-1.24,0-2.25,1.178-2.25,2.625c0,1.446,1.01,2.623,2.25,2.623c1.239,0,2.248-1.177,2.248-2.623  C57.051,45.299,56.042,44.121,54.803,44.121z M54.803,48.369c-0.689,0-1.25-0.729-1.25-1.623c0-0.896,0.561-1.625,1.25-1.625  c0.688,0,1.248,0.729,1.248,1.625C56.051,47.641,55.491,48.369,54.803,48.369z"></path><path d="M49.763,44.121c-0.276,0-0.5,0.224-0.5,0.5v4.248c0,0.276,0.224,0.5,0.5,0.5s0.5-0.224,0.5-0.5v-4.248  C50.263,44.345,50.039,44.121,49.763,44.121z"></path><path d="M44.722,44.121c-1.239,0-2.248,1.178-2.248,2.625c0,1.446,1.009,2.623,2.248,2.623s2.248-1.177,2.248-2.623  C46.97,45.299,45.961,44.121,44.722,44.121z M44.722,48.369c-0.688,0-1.248-0.729-1.248-1.623c0-0.896,0.56-1.625,1.248-1.625  s1.248,0.729,1.248,1.625C45.97,47.641,45.41,48.369,44.722,48.369z"></path><path d="M40.184,48.869v-4.248c0-0.276-0.224-0.5-0.5-0.5s-0.5,0.224-0.5,0.5v4.248c0,0.276,0.224,0.5,0.5,0.5  S40.184,49.146,40.184,48.869z"></path><path d="M36.393,49.369c0.276,0,0.5-0.224,0.5-0.5v-4.248c0-0.276-0.224-0.5-0.5-0.5s-0.5,0.224-0.5,0.5v4.248  C35.893,49.146,36.116,49.369,36.393,49.369z"></path><path d="M33.1,44.121c-0.276,0-0.5,0.224-0.5,0.5v4.248c0,0.276,0.224,0.5,0.5,0.5s0.5-0.224,0.5-0.5v-4.248  C33.6,44.345,33.376,44.121,33.1,44.121z"></path><path d="M28.062,44.121c-1.241,0-2.25,1.178-2.25,2.625c0,1.446,1.009,2.623,2.25,2.623c1.239,0,2.247-1.177,2.247-2.623  C30.309,45.299,29.301,44.121,28.062,44.121z M28.062,48.369c-0.689,0-1.25-0.729-1.25-1.623c0-0.896,0.561-1.625,1.25-1.625  c0.688,0,1.247,0.729,1.247,1.625C29.309,47.641,28.749,48.369,28.062,48.369z"></path><path d="M28.062,51.662c-1.241,0-2.25,1.177-2.25,2.623c0,1.447,1.009,2.625,2.25,2.625c1.239,0,2.247-1.178,2.247-2.625  C30.309,52.839,29.301,51.662,28.062,51.662z M28.062,55.91c-0.689,0-1.25-0.729-1.25-1.625c0-0.895,0.561-1.623,1.25-1.623  c0.688,0,1.247,0.729,1.247,1.623C29.309,55.182,28.749,55.91,28.062,55.91z"></path><path d="M33.1,51.662c-0.276,0-0.5,0.224-0.5,0.5v4.248c0,0.276,0.224,0.5,0.5,0.5s0.5-0.224,0.5-0.5v-4.248  C33.6,51.886,33.376,51.662,33.1,51.662z"></path><path d="M38.14,51.662c-1.239,0-2.247,1.177-2.247,2.623c0,1.447,1.008,2.625,2.247,2.625c1.24,0,2.249-1.178,2.249-2.625  C40.389,52.839,39.38,51.662,38.14,51.662z M38.14,55.91c-0.688,0-1.247-0.729-1.247-1.625c0-0.895,0.56-1.623,1.247-1.623  c0.688,0,1.249,0.729,1.249,1.623C39.389,55.182,38.828,55.91,38.14,55.91z"></path><path d="M43.18,51.662c-0.276,0-0.5,0.224-0.5,0.5v4.248c0,0.276,0.224,0.5,0.5,0.5s0.5-0.224,0.5-0.5v-4.248  C43.68,51.886,43.456,51.662,43.18,51.662z"></path><path d="M46.47,51.662c-0.276,0-0.5,0.224-0.5,0.5v4.248c0,0.276,0.224,0.5,0.5,0.5s0.5-0.224,0.5-0.5v-4.248  C46.97,51.886,46.746,51.662,46.47,51.662z"></path><path d="M49.763,51.662c-0.276,0-0.5,0.224-0.5,0.5v4.248c0,0.276,0.224,0.5,0.5,0.5s0.5-0.224,0.5-0.5v-4.248  C50.263,51.886,50.039,51.662,49.763,51.662z"></path><path d="M54.803,51.662c-1.24,0-2.25,1.177-2.25,2.623c0,1.447,1.01,2.625,2.25,2.625c1.239,0,2.248-1.178,2.248-2.625  C57.051,52.839,56.042,51.662,54.803,51.662z M54.803,55.91c-0.689,0-1.25-0.729-1.25-1.625c0-0.895,0.561-1.623,1.25-1.623  c0.688,0,1.248,0.729,1.248,1.623C56.051,55.182,55.491,55.91,54.803,55.91z"></path><path d="M8.586,9.469c0,0.196,0.026,0.384,0.058,0.601c0.024,0.173,0.05,0.348,0.05,0.521c0,0.144,0,0.198-0.244,0.198h-0.3v0.943  h0.3c0.244,0,0.244,0.079,0.244,0.197c0,0.167-0.025,0.334-0.05,0.5c-0.029,0.197-0.058,0.4-0.058,0.596  c0,0.776,0.465,1.221,1.275,1.221h0.441v-0.97H9.88c-0.151,0-0.23-0.013-0.23-0.285c0-0.145,0.02-0.284,0.044-0.437  c0.028-0.176,0.05-0.359,0.05-0.554c0.004-0.307-0.078-0.56-0.234-0.742c0.137-0.155,0.239-0.387,0.234-0.733  c0-0.198-0.022-0.374-0.051-0.561C9.669,9.819,9.649,9.675,9.649,9.537c0-0.267,0.067-0.278,0.23-0.278h0.423V8.29H9.861  C9.063,8.29,8.586,8.73,8.586,9.469z"></path><path d="M9.757,30.151c0-0.173,0.026-0.347,0.055-0.543c0.027-0.195,0.053-0.383,0.053-0.579c0-0.739-0.479-1.18-1.28-1.18H8.149  v0.968h0.415c0.179,0.003,0.237,0.026,0.237,0.279c0,0.106-0.016,0.215-0.03,0.325l-0.013,0.104c-0.03,0.183-0.058,0.36-0.058,0.559  c0,0.346,0.103,0.578,0.238,0.733c-0.155,0.182-0.238,0.434-0.238,0.739c0,0.201,0.028,0.384,0.056,0.546l0.016,0.128  c0.014,0.108,0.029,0.213,0.029,0.321c0,0.255-0.07,0.282-0.238,0.285H8.149v0.97h0.441c0.797,0,1.273-0.456,1.273-1.221  c0-0.196-0.027-0.398-0.056-0.596c-0.025-0.166-0.052-0.333-0.052-0.5c0-0.119,0-0.197,0.246-0.197h0.3v-0.942h-0.3  C9.757,30.348,9.757,30.294,9.757,30.151z"></path><path d="M10.89,15.943h18.56c0.276,0,0.5-0.224,0.5-0.5s-0.224-0.5-0.5-0.5H10.89c-0.276,0-0.5,0.224-0.5,0.5  S10.613,15.943,10.89,15.943z"></path><path d="M10.89,18.745h13.658c0.276,0,0.5-0.224,0.5-0.5s-0.224-0.5-0.5-0.5H10.89c-0.276,0-0.5,0.224-0.5,0.5  S10.613,18.745,10.89,18.745z"></path><path d="M31.621,17.745h-5.322c-0.276,0-0.5,0.224-0.5,0.5s0.224,0.5,0.5,0.5h5.322c0.276,0,0.5-0.224,0.5-0.5  S31.897,17.745,31.621,17.745z"></path><path d="M10.89,21.547h10.505c0.276,0,0.5-0.224,0.5-0.5s-0.224-0.5-0.5-0.5H10.89c-0.276,0-0.5,0.224-0.5,0.5  S10.613,21.547,10.89,21.547z"></path><path d="M22.716,21.047c0,0.276,0.224,0.5,0.5,0.5h3.993c0.276,0,0.5-0.224,0.5-0.5s-0.224-0.5-0.5-0.5h-3.993  C22.939,20.547,22.716,20.771,22.716,21.047z"></path><path d="M24.548,23.349H10.89c-0.276,0-0.5,0.224-0.5,0.5s0.224,0.5,0.5,0.5h13.658c0.276,0,0.5-0.224,0.5-0.5  S24.824,23.349,24.548,23.349z"></path><path d="M15.661,26.65c0-0.276-0.224-0.5-0.5-0.5H10.89c-0.276,0-0.5,0.224-0.5,0.5s0.224,0.5,0.5,0.5h4.271  C15.438,27.15,15.661,26.927,15.661,26.65z"></path><path d="M21.172,46.871c0-0.018-0.008-0.034-0.01-0.052c-0.003-0.033-0.009-0.063-0.02-0.095c-0.004-0.015-0.003-0.03-0.009-0.044  c-0.008-0.019-0.022-0.032-0.032-0.049c-0.009-0.016-0.011-0.034-0.021-0.049l-1.754-2.467c-0.16-0.224-0.471-0.276-0.697-0.117  c-0.225,0.16-0.278,0.472-0.118,0.697l1.179,1.659c-2.167-0.08-4.425-0.488-5.934-2.132c-1.361-1.482-1.916-3.828-1.647-6.972  c0.023-0.275-0.18-0.518-0.456-0.541c-0.281-0.023-0.518,0.181-0.541,0.455c-0.293,3.435,0.348,6.036,1.906,7.733  c1.711,1.864,4.23,2.342,6.487,2.445l-0.944,0.959c-0.193,0.196-0.191,0.513,0.006,0.707c0.097,0.096,0.224,0.144,0.351,0.144  c0.129,0,0.258-0.05,0.356-0.149l1.75-1.778c0,0,0,0,0.001,0l0.002-0.003c0.01-0.011,0.014-0.024,0.023-0.035  c0.003-0.005,0.005-0.01,0.009-0.014c0.019-0.024,0.036-0.048,0.05-0.074c0.007-0.014,0.018-0.024,0.023-0.038  c0.008-0.019,0.007-0.039,0.013-0.058c0.008-0.03,0.015-0.06,0.017-0.092c0.001-0.014,0.008-0.025,0.008-0.04  C21.173,46.872,21.172,46.871,21.172,46.871z"></path></svg>