<svg height='100px' width='100px'  fill="#000000" xmlns="http://www.w3.org/2000/svg" data-name="Layer 1" viewBox="0 0 100 100" x="0px" y="0px"><title>professions-nounproject</title><path d="M76.61,65.1l1.19-7.78a1.64,1.64,0,0,0,0-.23,4.28,4.28,0,0,0-4.28-4.27H63.07A5.74,5.74,0,0,1,59.44,46,17.84,17.84,0,0,0,67.73,33.9c1.39-2.62,6.66-13.66.61-20.57-.46-.53-7.56-8.78-17.44-9.16C45.19,4,39.77,6.41,34.8,11.47a13,13,0,0,0-5.45,7.72c-.79,3.6.19,7.47,2.87,11.51a17.87,17.87,0,0,0,8.55,15.21,5.77,5.77,0,0,1-3.62,6.91H26.33a4.28,4.28,0,0,0-4.27,4.27.86.86,0,0,0,0,.23l1.21,8a26.51,26.51,0,0,0-4.95,15.47V91.34a4.51,4.51,0,0,0,4.5,4.5H77.16a4.51,4.51,0,0,0,4.5-4.5V80.76C81.66,74.48,80,69.48,76.61,65.1ZM32.28,19.87a10.06,10.06,0,0,1,4.23-5.93,1.54,1.54,0,0,0,.32-.25C41.21,9.19,45.9,7,50.76,7.17c8.66.32,15.22,8,15.29,8.1l0,0c4.29,4.88.93,13.23-.54,16.3a4.58,4.58,0,0,1-.33-.46,1.62,1.62,0,0,0-.1-.18l-.23-.42c0-.08-.08-.18-.12-.27a4,4,0,0,1-.2-.46,3.24,3.24,0,0,1-.13-.33L64.24,29c0-.13-.07-.26-.11-.39A5.44,5.44,0,0,1,64,28c0-.14-.07-.28-.1-.42l-.12-.75-.06-.41c-.05-.4-.09-.82-.11-1.27a5.7,5.7,0,0,0-2.12-4.2,5.89,5.89,0,0,0-.71-.48l-.15-.08a5.7,5.7,0,0,0-.76-.34l-.12,0a6.93,6.93,0,0,0-.75-.2l-.12,0a4.54,4.54,0,0,0-.82-.07h-.18a6,6,0,0,0-.84.07c-7.09,1.21-18.69.51-18.8.5a1.5,1.5,0,0,0-1.59,1.63A15.18,15.18,0,0,1,35.39,30L35,29.43C32.56,26,31.65,22.74,32.28,19.87Zm3.33,14.21h0a1.73,1.73,0,0,0,.46-.12l.06,0a1.73,1.73,0,0,0,.41-.3c.14-.15,3.22-3.46,3.12-10.3,3.56.16,12,.37,17.82-.62a2.53,2.53,0,0,1,2.06.54,2.77,2.77,0,0,1,1,2c0,.27,0,.54,0,.81l0,.25.06.56c0,.1,0,.2,0,.29s.05.36.08.54a2.74,2.74,0,0,1,.05.28l.12.57a1.74,1.74,0,0,1,.05.22c.07.27.13.53.21.78v.05c.07.24.15.47.23.7,0,.07.05.14.08.22s.12.34.19.5l.1.24.21.46c0,.07.07.14.1.22l.26.47.09.15c.12.2.24.39.37.58l.06.07c.11.15.23.3.34.43l.14.15q.15.16.3.3l.16.14a2.34,2.34,0,0,0,.31.24l.17.12.08.06a14.85,14.85,0,0,1-6.87,8.93,1.26,1.26,0,0,0-.45.26,14.93,14.93,0,0,1-21.57-9.75Zm8.32,13.38a17.76,17.76,0,0,0,12.36,0,8.58,8.58,0,0,0,1.83,5.32h-16A8.58,8.58,0,0,0,43.93,47.46Zm-17.6,8.36H73.54A1.28,1.28,0,0,1,74.81,57L70.44,85.71a.82.82,0,0,0,0,.22,1.27,1.27,0,0,1-1.27,1.28H30.73a1.27,1.27,0,0,1-1.27-1.28,1.64,1.64,0,0,0,0-.22L25.06,57A1.28,1.28,0,0,1,26.33,55.82Zm-5,35.52V80.76A23.53,23.53,0,0,1,24,69.86l2.47,16.2a4,4,0,0,0,.21,1.15h-.79A2.78,2.78,0,0,0,23.1,90v2.85h-.26A1.5,1.5,0,0,1,21.34,91.34Zm4.76,1.5V90.21H73v2.63Zm52.56-1.5a1.5,1.5,0,0,1-1.5,1.5H76V90a2.78,2.78,0,0,0-2.76-2.78,4,4,0,0,0,.22-1.15L76,69.44a22,22,0,0,1,2.71,11.32Z"></path><circle cx="45.03" cy="28.31" r="2.43"></circle><circle cx="55.59" cy="28.31" r="2.43"></circle><path d="M55.63,37.37a1.5,1.5,0,0,0-3,0,2.69,2.69,0,0,1-5.38,0,1.5,1.5,0,0,0-3,0,5.69,5.69,0,0,0,11.38,0Z"></path><path d="M42.92,80.31a1.53,1.53,0,0,0,1.06.44A1.5,1.5,0,0,0,45,78.19L38.3,71.45,45,64.79a1.5,1.5,0,1,0-2.12-2.12l-7.72,7.72a1.51,1.51,0,0,0,0,2.12Z"></path><path d="M55.31,64.79,62,71.45l-6.74,6.74a1.5,1.5,0,0,0,1.06,2.56,1.49,1.49,0,0,0,1.06-.44l7.8-7.8a1.52,1.52,0,0,0,.44-1.06,1.5,1.5,0,0,0-.44-1.06l-7.71-7.72a1.5,1.5,0,0,0-2.12,2.12Z"></path><path d="M46.37,82.64a1.61,1.61,0,0,0,.48.08,1.5,1.5,0,0,0,1.42-1l6.56-19.41a1.5,1.5,0,1,0-2.84-1L45.43,80.74A1.51,1.51,0,0,0,46.37,82.64Z"></path></svg>