<svg height='100px' width='100px'  fill="#000000" xmlns:x="http://ns.adobe.com/Extensibility/1.0/" xmlns:i="http://ns.adobe.com/AdobeIllustrator/10.0/" xmlns:graph="http://ns.adobe.com/Graphs/1.0/" xmlns="http://www.w3.org/2000/svg" xmlns:xlink="http://www.w3.org/1999/xlink" xmlns:a="http://ns.adobe.com/AdobeSVGViewerExtensions/3.0/" version="1.1" x="0px" y="0px" viewBox="0 0 100 100" enable-background="new 0 0 100 100" xml:space="preserve"><metadata><?xpacket begin="&#65279;" id="W5M0MpCehiHzreSzNTczkc9d"?><x:xmpmeta xmlns:x="adobe:ns:meta/" x:xmptk="Adobe XMP Core 5.5-c014 79.151739, 2013/04/03-12:12:15        "></x:xmpmeta><?xpacket end="w"?></metadata><path d="M3.75,76.25h32.5v10h-7.5v10h42.5v-10h-7.5v-10h32.5V3.75H3.75V76.25z M38.75,76.25h2.5v10h-2.5V76.25z M56.25,86.25h-12.5  v-10h12.5V86.25z M68.75,88.75v5h-37.5v-5h5h7.5h12.5h7.5H68.75z M61.25,86.25h-2.5v-10h2.5V86.25z M6.25,6.25h87.5v67.5h-30h-7.5  h-12.5h-7.5h-30V6.25z"></path><path d="M73.75,71.25v-5h7.7304077c0.5177002,1.4519043,1.8925171,2.5,3.5195923,2.5c2.0673828,0,3.75-1.6821289,3.75-3.75  s-1.6826172-3.75-3.75-3.75c-1.6270752,0-3.0018921,1.0480957-3.5195923,2.5H73.75v-7.5h2.7304077  c0.5177002,1.4519043,1.8925171,2.5,3.5195923,2.5c2.0673828,0,3.75-1.6821289,3.75-3.75s-1.6826172-3.75-3.75-3.75  c-1.6270752,0-3.0018921,1.0480957-3.5195923,2.5H73.75v-7.5h7.7304077c0.5177002,1.4519043,1.8925171,2.5,3.5195923,2.5  c2.0673828,0,3.75-1.6821289,3.75-3.75s-1.6826172-3.75-3.75-3.75c-1.6270752,0-3.0018921,1.0480957-3.5195923,2.5H73.75v-7.5  h2.7304077c0.5177002,1.4519043,1.8925171,2.5,3.5195923,2.5c2.0673828,0,3.75-1.6821289,3.75-3.75s-1.6826172-3.75-3.75-3.75  c-1.6270752,0-3.0018921,1.0480957-3.5195923,2.5H73.75v-7.5h7.7304077c0.5177002,1.4519043,1.8925171,2.5,3.5195923,2.5  c2.0673828,0,3.75-1.6821289,3.75-3.75s-1.6826172-3.75-3.75-3.75c-1.6270752,0-3.0018921,1.0480957-3.5195923,2.5H73.75v-7.5  h2.7304077c0.5177002,1.4519043,1.8925171,2.5,3.5195923,2.5c2.0673828,0,3.75-1.6821289,3.75-3.75s-1.6826172-3.75-3.75-3.75  c-1.6270752,0-3.0018921,1.0480957-3.5195923,2.5H73.75v-5h-47.5v5h-2.7304077C23.0018921,12.2980957,21.6270752,11.25,20,11.25  c-2.0673828,0-3.75,1.6821289-3.75,3.75s1.6826172,3.75,3.75,3.75c1.6270752,0,3.0018921-1.0480957,3.5195923-2.5H26.25v7.5  h-7.7304077C18.0018921,22.2980957,16.6270752,21.25,15,21.25c-2.0673828,0-3.75,1.6821289-3.75,3.75s1.6826172,3.75,3.75,3.75  c1.6270752,0,3.0018921-1.0480957,3.5195923-2.5H26.25v7.5h-2.7304077C23.0018921,32.2980957,21.6270752,31.25,20,31.25  c-2.0673828,0-3.75,1.6821289-3.75,3.75s1.6826172,3.75,3.75,3.75c1.6270752,0,3.0018921-1.0480957,3.5195923-2.5H26.25v7.5  h-7.7304077C18.0018921,42.2980957,16.6270752,41.25,15,41.25c-2.0673828,0-3.75,1.6821289-3.75,3.75s1.6826172,3.75,3.75,3.75  c1.6270752,0,3.0018921-1.0480957,3.5195923-2.5H26.25v7.5h-2.7304077C23.0018921,52.2980957,21.6270752,51.25,20,51.25  c-2.0673828,0-3.75,1.6821289-3.75,3.75s1.6826172,3.75,3.75,3.75c1.6270752,0,3.0018921-1.0480957,3.5195923-2.5H26.25v7.5  h-7.7304077C18.0018921,62.2980957,16.6270752,61.25,15,61.25c-2.0673828,0-3.75,1.6821289-3.75,3.75s1.6826172,3.75,3.75,3.75  c1.6270752,0,3.0018921-1.0480957,3.5195923-2.5H26.25v5H73.75z M28.75,11.25h42.5v51.0478516L57.4521484,20.9042969  L47.2226563,54.1503906l-7.2763672-14.5527344L28.75,64.2299194V11.25z M29.440918,68.75l10.612793-23.3476563l7.7236328,15.4472656  l9.7705078-31.7539063L70.7659302,68.75H29.440918z M85,63.75c0.6894531,0,1.25,0.5605469,1.25,1.25s-0.5605469,1.25-1.25,1.25  s-1.25-0.5605469-1.25-1.25S84.3105469,63.75,85,63.75z M80,53.75c0.6894531,0,1.25,0.5605469,1.25,1.25s-0.5605469,1.25-1.25,1.25  s-1.25-0.5605469-1.25-1.25S79.3105469,53.75,80,53.75z M85,43.75c0.6894531,0,1.25,0.5605469,1.25,1.25s-0.5605469,1.25-1.25,1.25  s-1.25-0.5605469-1.25-1.25S84.3105469,43.75,85,43.75z M80,33.75c0.6894531,0,1.25,0.5605469,1.25,1.25s-0.5605469,1.25-1.25,1.25  s-1.25-0.5605469-1.25-1.25S79.3105469,33.75,80,33.75z M85,23.75c0.6894531,0,1.25,0.5605469,1.25,1.25s-0.5605469,1.25-1.25,1.25  s-1.25-0.5605469-1.25-1.25S84.3105469,23.75,85,23.75z M80,13.75c0.6894531,0,1.25,0.5605469,1.25,1.25s-0.5605469,1.25-1.25,1.25  s-1.25-0.5605469-1.25-1.25S79.3105469,13.75,80,13.75z M20,16.25c-0.6894531,0-1.25-0.5605469-1.25-1.25s0.5605469-1.25,1.25-1.25  s1.25,0.5605469,1.25,1.25S20.6894531,16.25,20,16.25z M15,26.25c-0.6894531,0-1.25-0.5605469-1.25-1.25s0.5605469-1.25,1.25-1.25  s1.25,0.5605469,1.25,1.25S15.6894531,26.25,15,26.25z M20,36.25c-0.6894531,0-1.25-0.5605469-1.25-1.25s0.5605469-1.25,1.25-1.25  s1.25,0.5605469,1.25,1.25S20.6894531,36.25,20,36.25z M15,46.25c-0.6894531,0-1.25-0.5605469-1.25-1.25s0.5605469-1.25,1.25-1.25  s1.25,0.5605469,1.25,1.25S15.6894531,46.25,15,46.25z M20,56.25c-0.6894531,0-1.25-0.5605469-1.25-1.25s0.5605469-1.25,1.25-1.25  s1.25,0.5605469,1.25,1.25S20.6894531,56.25,20,56.25z M15,66.25c-0.6894531,0-1.25-0.5605469-1.25-1.25s0.5605469-1.25,1.25-1.25  s1.25,0.5605469,1.25,1.25S15.6894531,66.25,15,66.25z"></path><path d="M51.25,25c0-4.824707-3.9248047-8.75-8.75-8.75s-8.75,3.925293-8.75,8.75s3.9248047,8.75,8.75,8.75  S51.25,29.824707,51.25,25z M36.25,25c0-3.4462891,2.8037109-6.25,6.25-6.25s6.25,2.8037109,6.25,6.25s-2.8037109,6.25-6.25,6.25  S36.25,28.4462891,36.25,25z"></path></svg>