<svg height='100px' width='100px'  fill="#000000" xmlns="http://www.w3.org/2000/svg" xmlns:xlink="http://www.w3.org/1999/xlink" version="1.1" x="0px" y="0px" viewBox="0 0 64 64" style="enable-background:new 0 0 64 64;" xml:space="preserve"><g><path d="M60.02,20.942c0.128-0.291,0.375-0.502,0.703-0.586C62.063,20.015,63,18.811,63,17.427v-2.854   c0-1.385-0.937-2.59-2.301-2.936c-0.293-0.075-0.541-0.283-0.671-0.561l-0.023-0.057c-0.126-0.299-0.104-0.642,0.071-0.936   c0.707-1.19,0.518-2.704-0.461-3.683l-2.018-2.018c-0.979-0.979-2.494-1.168-3.702-0.449c-0.274,0.162-0.617,0.185-0.938,0.051   L52.942,3.98c-0.287-0.127-0.504-0.38-0.586-0.703C52.015,1.937,50.811,1,49.427,1h-2.854c-1.384,0-2.588,0.937-2.936,2.301   c-0.075,0.293-0.283,0.541-0.561,0.671l-0.056,0.023c-0.298,0.125-0.643,0.103-0.937-0.071c-1.188-0.708-2.704-0.518-3.683,0.461   l-2.018,2.018c-0.979,0.979-1.168,2.492-0.449,3.703c0.156,0.262,0.179,0.586,0.063,0.895H6c-2.757,0-5,2.243-5,5s2.243,5,5,5   h30.001c0.117,0.294,0.094,0.628-0.077,0.915c-0.707,1.19-0.518,2.704,0.461,3.683l2.018,2.018   c0.977,0.979,2.491,1.167,3.703,0.449c0.273-0.163,0.617-0.186,0.937-0.051l0.016,0.006c0.291,0.128,0.502,0.375,0.586,0.703   C43.985,30.063,45.189,31,46.573,31H47v4H9v6H1v22h18V41h-8v-4h20v4h-8v22h18V41h-8v-4h20v4h-8v22h18V41h-8v-6h-6v-4h0.427   c1.384,0,2.588-0.937,2.936-2.301c0.076-0.298,0.279-0.54,0.56-0.671l0.058-0.023c0.298-0.127,0.642-0.103,0.936,0.071   c1.188,0.707,2.704,0.518,3.683-0.461l2.018-2.018c0.979-0.979,1.168-2.492,0.449-3.703c-0.163-0.273-0.186-0.616-0.051-0.937   L60.02,20.942z M17,61H3V43h14V61z M39,61H25V43h14V61z M61,61H47V43h14V61z M15,19v-2h28v2H15z M13,19h-2v-6h2V19z M50.712,15.584   C50.884,15.649,51,15.816,51,16s-0.116,0.351-0.288,0.415L45,18.557v-5.114L50.712,15.584z M44.182,21l7.233-2.713   C52.363,17.931,53,17.012,53,16s-0.637-1.931-1.585-2.288L44.182,11h-1.063C44.411,9.74,46.159,9,48,9c3.859,0,7,3.141,7,7   s-3.141,7-7,7c-1.841,0-3.589-0.74-4.882-2H44.182z M43,13v2H15v-2H43z M3,16c0-1.654,1.346-3,3-3h3v6H6C4.346,19,3,17.654,3,16z    M58.167,20.188l-0.025,0.063c-0.349,0.871-0.273,1.865,0.216,2.686c0.239,0.403,0.175,0.916-0.156,1.247l-2.018,2.018   c-0.332,0.332-0.846,0.396-1.266,0.145c-0.803-0.478-1.797-0.551-2.666-0.204l-0.064,0.025c-0.872,0.365-1.531,1.128-1.769,2.062   C50.303,28.683,49.895,29,49.427,29h-2.854c-0.468,0-0.876-0.317-0.998-0.793c-0.231-0.912-0.891-1.675-1.763-2.04l-0.064-0.025   c-0.868-0.35-1.862-0.274-2.685,0.216c-0.402,0.239-0.916,0.176-1.247-0.156l-2.018-2.018c-0.331-0.331-0.396-0.844-0.145-1.266   c0.345-0.579,0.472-1.258,0.389-1.918h2.505c1.664,2.474,4.457,4,7.451,4c4.963,0,9-4.037,9-9s-4.037-9-9-9   c-2.994,0-5.787,1.526-7.451,4h-2.506c0.082-0.662-0.047-1.344-0.401-1.937c-0.239-0.403-0.175-0.916,0.156-1.247l2.018-2.018   c0.332-0.332,0.844-0.395,1.267-0.145c0.816,0.485,1.829,0.554,2.618,0.218l0.112-0.04c0.872-0.365,1.53-1.127,1.768-2.061   C45.697,3.317,46.105,3,46.573,3h2.854c0.468,0,0.876,0.317,0.998,0.793c0.231,0.912,0.89,1.674,1.78,2.046   c0.88,0.37,1.894,0.302,2.731-0.196c0.404-0.239,0.916-0.175,1.247,0.156l2.018,2.018c0.331,0.331,0.396,0.844,0.145,1.266   c-0.478,0.803-0.553,1.796-0.204,2.666l0.026,0.065c0.365,0.872,1.127,1.53,2.062,1.769C60.684,13.696,61,14.104,61,14.573v2.854   c0,0.468-0.317,0.876-0.793,0.998C59.295,18.656,58.532,19.315,58.167,20.188z"></path><rect x="49" y="45" width="10" height="2"></rect><path d="M59,53H49v6h10V53z M57,57h-6v-2h6V57z"></path><rect x="49" y="49" width="10" height="2"></rect><rect x="27" y="45" width="2" height="2"></rect><rect x="31" y="45" width="6" height="2"></rect><rect x="27" y="49" width="2" height="2"></rect><rect x="31" y="49" width="6" height="2"></rect><rect x="5" y="45" width="2" height="2"></rect><rect x="9" y="45" width="6" height="2"></rect><rect x="5" y="49" width="2" height="2"></rect><rect x="9" y="49" width="6" height="2"></rect><rect x="5" y="53" width="2" height="2"></rect><rect x="9" y="53" width="6" height="2"></rect><rect x="5" y="57" width="2" height="2"></rect><rect x="9" y="57" width="6" height="2"></rect><path d="M37,53H27v6h10V53z M35,57h-6v-2h6V57z"></path></g></svg>