<svg height='100px' width='100px'  fill="#000000" xmlns="http://www.w3.org/2000/svg" xmlns:xlink="http://www.w3.org/1999/xlink" version="1.1" x="0px" y="0px" viewBox="0 0 40 40" style="enable-background:new 0 0 40 40;" xml:space="preserve"><path d="M11,17.9h2.2c0.5,0,0.9-0.4,0.9-0.9v-4.9c0-0.5-0.4-0.9-0.9-0.9H11c-0.5,0-0.9,0.4-0.9,0.9V17C10.1,17.5,10.5,17.9,11,17.9z   M10.9,12.1c0-0.1,0-0.1,0.1-0.1h2.2c0.1,0,0.1,0,0.1,0.1V17c0,0.1,0,0.1-0.1,0.1H11c-0.1,0-0.1,0-0.1-0.1V12.1z"></path><path d="M18.4,11.2h-2.2c-0.5,0-0.9,0.4-0.9,0.9V17c0,0.5,0.4,0.9,0.9,0.9h2.2l0,0c0.5,0,0.9-0.4,0.9-0.9v-0.8v-4.1  C19.3,11.6,18.9,11.2,18.4,11.2z M16.2,17.1c-0.1,0-0.1,0-0.1-0.1v-4.9c0-0.1,0-0.1,0.1-0.1h2.2c0.1,0,0.1,0,0.1,0.1V17  c0,0.1,0,0.1-0.1,0.1H16.2z"></path><path d="M20.5,12.1v1.7V17c0,0.5,0.4,0.9,0.9,0.9h2.2c0.5,0,0.9-0.4,0.9-0.9v-4.9c0-0.5-0.4-0.9-0.9-0.9h-1.7h-0.5  C20.9,11.2,20.5,11.6,20.5,12.1z M23.6,12c0.1,0,0.1,0,0.1,0.1V17c0,0.1,0,0.1-0.1,0.1h-2.2c-0.1,0-0.1,0-0.1-0.1v-4.6v-0.3  c0-0.1,0-0.1,0.1-0.1h0.1C21.5,12,23.6,12,23.6,12z"></path><path d="M28.8,11.2h-2.2c-0.5,0-0.9,0.4-0.9,0.9V17c0,0.5,0.4,0.9,0.9,0.9h2.2c0.5,0,0.9-0.4,0.9-0.9v-4.9  C29.7,11.6,29.3,11.2,28.8,11.2z M28.9,17c0,0.1,0,0.1-0.1,0.1h-2.2c-0.1,0-0.1,0-0.1-0.1v-4.9c0-0.1,0-0.1,0.1-0.1h2.2  c0.1,0,0.1,0,0.1,0.1V17z"></path><path d="M11,26.6h2.2c0.5,0,0.9-0.4,0.9-0.9v-4.9c0-0.5-0.4-0.9-0.9-0.9H11c-0.5,0-0.9,0.4-0.9,0.9v4.9C10.1,26.2,10.5,26.6,11,26.6  z M10.9,20.8c0-0.1,0-0.1,0.1-0.1h2.2c0.1,0,0.1,0,0.1,0.1v4.9c0,0.1,0,0.1-0.1,0.1H11c-0.1,0-0.1,0-0.1-0.1V20.8z"></path><path d="M15.3,20.8v3v1.9c0,0.5,0.4,0.9,0.9,0.9h2.2c0.5,0,0.9-0.4,0.9-0.9v-4.9c0-0.5-0.4-0.9-0.9-0.9h-1.1h-1.1  C15.7,19.9,15.3,20.3,15.3,20.8z M18.4,20.7c0.1,0,0.1,0,0.1,0.1v4.9c0,0.1,0,0.1-0.1,0.1h-2.2c-0.1,0-0.1,0-0.1-0.1v-3.3v-1.6  c0-0.1,0-0.1,0.1-0.1h0.7H18.4z"></path><path d="M23.6,19.9h-2.2c-0.5,0-0.9,0.4-0.9,0.9v4.9c0,0.5,0.4,0.9,0.9,0.9h2.2c0.5,0,0.9-0.4,0.9-0.9v-4.9  C24.5,20.3,24.1,19.9,23.6,19.9z M23.7,25.7c0,0.1,0,0.1-0.1,0.1h-2.2c-0.1,0-0.1,0-0.1-0.1v-4.9c0-0.1,0-0.1,0.1-0.1h2.2  c0.1,0,0.1,0,0.1,0.1V25.7z"></path><path d="M28.8,19.9h-2.2c-0.5,0-0.9,0.4-0.9,0.9v4.9c0,0.5,0.4,0.9,0.9,0.9h2.2c0.5,0,0.9-0.4,0.9-0.9v-4.9  C29.7,20.3,29.3,19.9,28.8,19.9z M28.9,25.7c0,0.1,0,0.1-0.1,0.1h-2.2c-0.1,0-0.1,0-0.1-0.1v-4.9c0-0.1,0-0.1,0.1-0.1h2.2  c0.1,0,0.1,0,0.1,0.1V25.7z"></path><path d="M10.1,29.4v4.4v0.5c0,0.5,0.4,0.9,0.9,0.9h2.2c0.5,0,0.9-0.4,0.9-0.9v-4.9c0-0.5-0.4-0.9-0.9-0.9h-0.3H11  C10.5,28.5,10.1,28.9,10.1,29.4z M13.2,29.3c0.1,0,0.1,0,0.1,0.1v4.9c0,0.1,0,0.1-0.1,0.1H11c-0.1,0-0.1,0-0.1-0.1v-2v-2.9  c0-0.1,0-0.1,0.1-0.1h1.5H13.2z"></path><path d="M28.8,28.5h-2.2c-0.5,0-0.9,0.4-0.9,0.9v4.9c0,0.5,0.4,0.9,0.9,0.9h2.2c0.5,0,0.9-0.4,0.9-0.9v-4.9  C29.7,28.9,29.3,28.5,28.8,28.5z M28.9,34.3c0,0.1,0,0.1-0.1,0.1h-2.2c-0.1,0-0.1,0-0.1-0.1v-4.9c0-0.1,0-0.1,0.1-0.1h2.2  c0.1,0,0.1,0,0.1,0.1V34.3z"></path><path d="M33.7,5.5c0-0.1-0.1-0.1-0.1-0.2s0-0.2-0.1-0.3l-3-4c-0.1-0.1-0.9-0.8-1.5-0.8H11.4h-0.1c-0.7,0.1-1.4,0.5-1.7,1L7.3,4.8  C7,5,6.9,5.3,6.9,5.7v32.8c0,0.5,0.5,1.1,1.1,1.1h7.9c0.6,0,1.2-0.3,1.4-0.8h5.4c0.2,0.4,0.6,0.8,1.1,0.8h8.7c0.6,0,1.1-0.5,1.1-1.1  V5.7C33.7,5.6,33.7,5.6,33.7,5.5z M11.5,1.5H29c0.1,0,0.6,0.3,0.6,0.4l2.6,3.6H8.4L10.6,2C10.7,1.8,11,1.6,11.5,1.5z M22.7,38.1  h-2.3v-8.4h2.3V38.1z M19.6,38.1h-2.2v-8.4h2.2V38.1z M23.9,38.4v-8.8c0-0.6-0.5-1.1-1.1-1.1h-5.5c-0.6,0-1.1,0.5-1.1,1.1v8.7  c-0.1,0-0.2,0.1-0.3,0.1H8.1v-0.8V6.2h16.4h8v32.2H23.9z"></path></svg>