<svg height='100px' width='100px'  fill="#000000" xmlns="http://www.w3.org/2000/svg" viewBox="0 0 60 60" x="0px" y="0px"><path d="M18,16H17a1,1,0,0,0,0,2h1a1,1,0,0,0,0-2Z"></path><path d="M37,38h6a1,1,0,0,0,0-2H37a1,1,0,0,0,0,2Z"></path><path d="M18,26H17a1,1,0,0,0,0,2h1a1,1,0,0,0,0-2Z"></path><path d="M37,26a1,1,0,0,0,0,2h6a1,1,0,0,0,0-2Z"></path><path d="M18,36H17a1,1,0,0,0,0,2h1a1,1,0,0,0,0-2Z"></path><path d="M23,16H22a1,1,0,0,0,0,2h1a1,1,0,0,0,0-2Z"></path><path d="M23,26H22a1,1,0,0,0,0,2h1a1,1,0,0,0,0-2Z"></path><path d="M30,0A30,30,0,1,0,60,30,30.034,30.034,0,0,0,30,0Zm0,2A27.889,27.889,0,0,1,49.066,9.52L46.6,11.985A3.967,3.967,0,0,0,44,11H16a4,4,0,0,0-4,4v4a3.974,3.974,0,0,0,1.382,3A3.974,3.974,0,0,0,12,25v4a3.974,3.974,0,0,0,1.382,3A3.974,3.974,0,0,0,12,35v4a3.991,3.991,0,0,0,3.624,3.962l-6.1,6.1A27.98,27.98,0,0,1,30,2ZM44,21H40.414l3.292-3.292,0,0L46,15.414V19A2,2,0,0,1,44,21Zm2,4v4a2,2,0,0,1-2,2H30.414l8-8H44A2,2,0,0,1,46,25Zm0,10v4a2,2,0,0,1-2,2H20.414l8-8H44A2,2,0,0,1,46,35ZM30,47a2,2,0,1,1-2,2A2,2,0,0,1,30,47ZM16,41a2,2,0,0,1-2-2V35a2,2,0,0,1,2-2h9.586l-8,8ZM14,29V25a2,2,0,0,1,2-2H35.586l-8,8H16A2,2,0,0,1,14,29Zm0-10V15a2,2,0,0,1,2-2H44a1.985,1.985,0,0,1,1.187.4l-2.6,2.6H37a1,1,0,0,0,0,2h3.586l-3,3H16A2,2,0,0,1,14,19ZM30,58a27.889,27.889,0,0,1-19.066-7.52L18.414,43H29v2.142A3.991,3.991,0,0,0,26.142,48H19a1,1,0,0,0,0,2h7.142a3.981,3.981,0,0,0,7.716,0H41a1,1,0,0,0,0-2H33.858A3.991,3.991,0,0,0,31,45.142V43H44a4,4,0,0,0,4-4V35a3.974,3.974,0,0,0-1.382-3A3.974,3.974,0,0,0,48,29V25a3.974,3.974,0,0,0-1.382-3A3.974,3.974,0,0,0,48,19V15a3.971,3.971,0,0,0-.247-1.339l2.727-2.727A27.98,27.98,0,0,1,30,58Z"></path></svg>