<svg xmlns:dc="http://purl.org/dc/elements/1.1/" xmlns:cc="http://creativecommons.org/ns#"
  xmlns:rdf="http://www.w3.org/1999/02/22-rdf-syntax-ns#" xmlns:svg="http://www.w3.org/2000/svg"
  xmlns="http://www.w3.org/2000/svg" xmlns:sodipodi="http://sodipodi.sourceforge.net/DTD/sodipodi-0.dtd"
  xmlns:inkscape="http://www.inkscape.org/namespaces/inkscape" version="1.1" x="0px" y="0px" viewBox="0 0 100 125">
  <g transform="translate(0,-952.36218)">
    <g transform="translate(0.996063,953.35824)">
      <path
        d="M 16.015748,0 C 11.622047,0 8.007874,3.6496063 8.007874,8.007874 3.6141732,8.007874 0,11.622047 0,16.015748 l 0,73.948818 c 0,4.393701 3.6141732,8.043308 8.007874,8.043308 l 73.984252,0 C 86.385826,98.007874 90,94.3937 90,90 c 4.358267,0 8.007874,-3.614174 8.007874,-8.007874 l 0,-73.948819 C 98.007874,3.6496063 94.3937,0 90,0 z m 0,6.023622 73.984252,0 c 1.133858,0 1.984252,0.8503937 1.984252,2.019685 l 0,73.948819 c 0,1.169291 -0.814961,2.019685 -1.984252,2.019685 l 0,-67.96063 C 88.937007,10.665354 85.960629,8.0787401 81.992126,8.007874 l -67.996063,0 C 14.42126,6.8385826 14.988189,6.023622 16.015748,6.023622 z m -8.007874,7.972441 73.984252,0 c 0.992126,0 2.019685,0.992126 2.019685,2.055118 l 0,11.940945 -78.0236221,0 0,-11.976378 c 0.4251969,-1.204724 0.992126,-1.984252 2.0196851,-2.019685 z m 4.996063,3.011811 C 10.807087,17.007874 9,18.814961 9,21.011811 c 0,2.19685 1.807087,4.003937 4.003937,4.003937 2.19685,0 4.003937,-1.807087 4.003937,-4.003937 0,-2.19685 -1.807087,-4.003937 -4.003937,-4.003937 z m 12.011811,0 c -2.232284,0 -4.003937,1.807087 -4.003937,4.003937 0,2.19685 1.771653,4.003937 4.003937,4.003937 2.19685,0 3.968504,-1.807087 3.968504,-4.003937 0,-2.19685 -1.771654,-4.003937 -3.968504,-4.003937 z m -19.0275591,17.007874 78.0236221,0 c 0,18.637795 0,37.346456 0,55.948818 0,1.169292 -0.850394,2.055119 -2.019685,2.055119 l -73.984252,0 c -1.1692914,0 -2.0196851,-0.885827 -2.0196851,-2.055119 z M 8.007874,36 l 0,22.003937 72,0 0,-22.003937 -72,0 z m 5.988189,6.023622 59.988189,0 0,9.992126 -59.988189,0 z m -5.988189,18 0,29.976378 40.003937,0 0,-29.976378 -40.003937,0 z m 41.988189,0 0,29.976378 30.011811,0 0,-29.976378 -30.011811,0 z m -36,5.988189 27.992126,0 0,18 -27.992126,0 z m 41.988189,0 18,0 0,18 -18,0 z"
        style="" fill="#000000" fill-opacity="1" fill-rule="nonzero" stroke="none" />
    </g>
  </g>
</svg>
