<svg height='100px' width='100px'  fill="#000000" xmlns:dc="http://purl.org/dc/elements/1.1/" xmlns:cc="http://creativecommons.org/ns#" xmlns:rdf="http://www.w3.org/1999/02/22-rdf-syntax-ns#" xmlns:svg="http://www.w3.org/2000/svg" xmlns="http://www.w3.org/2000/svg" xmlns:sodipodi="http://sodipodi.sourceforge.net/DTD/sodipodi-0.dtd" xmlns:inkscape="http://www.inkscape.org/namespaces/inkscape" version="1.1" x="0px" y="0px" viewBox="0 0 100 100"><defs><clipPath clipPathUnits="userSpaceOnUse" id="a"><path transform="matrix(0.18360657,0,0,0.18260869,190.37192,664.37679)" d="m 674.28571,549.50507 a 261.42856,262.85715 0 1 1 -522.85712,0 261.42856,262.85715 0 1 1 522.85712,0 z" style="" fill="#000000" fill-opacity="1" stroke="none"></path></clipPath></defs><g transform="translate(0,-952.36218)"><path style="" d="m 43.877449,1012.2301 c -0.828064,10e-5 -1.611203,0.1426 -2.314265,0.4395 -0.703071,0.2813 -1.300679,0.7501 -1.816258,1.4063 -0.515586,0.6563 -0.933519,1.502 -1.230369,2.549 -0.281229,1.0469 -0.410123,2.3223 -0.410123,3.838 0,2.9689 0.50777,5.1701 1.523314,6.5921 1.015538,1.4219 2.458779,2.1387 4.364879,2.1387 0.765554,0 1.443233,-0.1191 2.021319,-0.3223 0.593692,-0.2031 1.076075,-0.4219 1.43543,-0.7031 l -0.585889,-1.67 c -0.374979,0.25 -0.765573,0.459 -1.17178,0.6153 -0.390602,0.1562 -0.912043,0.2343 -1.552608,0.2343 -1.343647,0 -2.306458,-0.5996 -2.900154,-1.7871 -0.593705,-1.1876 -0.878839,-2.8947 -0.878835,-5.0979 -4e-6,-2.1876 0.257788,-3.8029 0.820246,-4.8342 0.562449,-1.0469 1.474483,-1.5528 2.724387,-1.5528 0.562447,0 1.07217,0.078 1.494019,0.2344 0.437456,0.1563 0.826095,0.3653 1.201074,0.6153 l 0.644479,-1.7579 c -0.37498,-0.2656 -0.871032,-0.502 -1.464724,-0.6739 -0.59371,-0.1875 -1.216706,-0.2636 -1.904142,-0.2637 z m 9.755065,0 c -0.640578,10e-5 -1.224514,0.09 -1.786964,0.293 -0.546834,0.2032 -1.029215,0.504 -1.43543,0.879 -0.390596,0.375 -0.70307,0.8164 -0.937424,1.3477 -0.218733,0.5313 -0.32224,1.1309 -0.322239,1.7872 -1e-6,0.6719 0.08983,1.2578 0.292945,1.7578 0.203107,0.5001 0.478475,0.9434 0.790951,1.3185 0.328096,0.375 0.664006,0.6855 1.054602,0.9668 0.390589,0.2813 0.783135,0.541 1.142485,0.791 0.31247,0.2188 0.611273,0.4551 0.908129,0.6739 0.296845,0.2188 0.542919,0.4668 0.761656,0.7324 0.234351,0.2657 0.44527,0.5509 0.58589,0.879 0.140607,0.3281 0.205055,0.6914 0.205062,1.1133 -7e-6,0.7969 -0.234363,1.4356 -0.703068,1.9044 -0.453093,0.4688 -1.119054,0.7031 -1.962731,0.7031 -0.562458,0 -1.056557,-0.064 -1.494019,-0.205 -0.421842,-0.1563 -0.824153,-0.3653 -1.230368,-0.6153 l -0.673774,1.6993 c 0.437464,0.2812 0.960858,0.502 1.523314,0.6738 0.562451,0.1719 1.212788,0.2637 1.962731,0.2637 0.812428,0 1.515496,-0.1172 2.109203,-0.3516 0.609319,-0.25 1.103419,-0.5898 1.494019,-0.9961 0.406209,-0.4219 0.691341,-0.8887 0.878834,-1.4356 0.187477,-0.5469 0.292937,-1.1485 0.292945,-1.7579 -8e-6,-0.6719 -0.08984,-1.2442 -0.292945,-1.7286 -0.187493,-0.5 -0.44919,-0.9297 -0.761656,-1.2891 -0.296859,-0.375 -0.621051,-0.6855 -0.996013,-0.9668 -0.374976,-0.2813 -0.753851,-0.5567 -1.11319,-0.7911 -0.359352,-0.2343 -0.697214,-0.4551 -1.025308,-0.6738 -0.312479,-0.2188 -0.599565,-0.4668 -0.84954,-0.7325 -0.234359,-0.2656 -0.429656,-0.5508 -0.58589,-0.8789 -0.140616,-0.3281 -0.205064,-0.7051 -0.205061,-1.1426 -3e-6,-0.7969 0.220682,-1.4102 0.673773,-1.8165 0.468708,-0.4219 1.079985,-0.6446 1.845553,-0.6446 0.421835,0 0.826098,0.08 1.201074,0.2051 0.390586,0.1094 0.75579,0.2793 1.083896,0.4981 l 0.644479,-1.67 c -0.359354,-0.2188 -0.787053,-0.4004 -1.318252,-0.5567 -0.531214,-0.1562 -1.132727,-0.2343 -1.757669,-0.2344 z m 9.403531,0 c -0.640578,10e-5 -1.253808,0.09 -1.816259,0.293 -0.546834,0.2032 -1.029215,0.504 -1.43543,0.879 -0.390595,0.375 -0.703069,0.8164 -0.937423,1.3477 -0.218733,0.5313 -0.322241,1.1309 -0.32224,1.7872 -10e-7,0.6719 0.11913,1.2578 0.32224,1.7578 0.203107,0.5001 0.44918,0.9434 0.761656,1.3185 0.328097,0.375 0.693301,0.6855 1.083897,0.9668 0.390589,0.2813 0.753841,0.541 1.11319,0.791 0.312471,0.2188 0.611273,0.4551 0.908129,0.6739 0.296846,0.2188 0.572214,0.4668 0.790951,0.7324 0.234351,0.2657 0.415976,0.5509 0.556596,0.879 0.140607,0.3281 0.205055,0.6914 0.205061,1.1133 -6e-6,0.7969 -0.234362,1.4356 -0.703068,1.9044 -0.453093,0.4688 -1.089759,0.7031 -1.933436,0.7031 -0.562458,0 -1.056557,-0.064 -1.494019,-0.205 -0.421842,-0.1563 -0.853447,-0.3653 -1.259663,-0.6153 l -0.644479,1.6993 c 0.437464,0.2812 0.931563,0.502 1.494019,0.6738 0.562452,0.1719 1.212788,0.2637 1.962731,0.2637 0.812429,0 1.515496,-0.1172 2.109203,-0.3516 0.609319,-0.25 1.103419,-0.5898 1.494019,-0.9961 0.406209,-0.4219 0.720636,-0.8887 0.908129,-1.4356 0.187477,-0.5469 0.263642,-1.1485 0.263651,-1.7579 -9e-6,-0.6719 -0.08984,-1.2442 -0.292945,-1.7286 -0.187493,-0.5 -0.44919,-0.9297 -0.761657,-1.2891 -0.296858,-0.375 -0.62105,-0.6855 -0.996012,-0.9668 -0.374976,-0.2813 -0.753851,-0.5567 -1.113191,-0.7911 -0.359351,-0.2343 -0.697213,-0.4551 -1.025307,-0.6738 -0.312479,-0.2188 -0.599565,-0.4668 -0.84954,-0.7325 -0.23436,-0.2656 -0.429656,-0.5508 -0.58589,-0.8789 -0.140616,-0.3281 -0.205064,-0.7051 -0.205061,-1.1426 -3e-6,-0.7969 0.220681,-1.4102 0.673773,-1.8165 0.468708,-0.4219 1.109279,-0.6446 1.874847,-0.6446 0.421835,0 0.796804,0.08 1.17178,0.2051 0.390586,0.1094 0.75579,0.2793 1.083896,0.4981 l 0.673773,-1.67 c -0.359354,-0.2188 -0.816347,-0.4004 -1.347547,-0.5567 -0.531213,-0.1562 -1.103432,-0.2343 -1.728374,-0.2344 z m -28.12271,14.1217 c -0.421842,0 -0.775329,0.1289 -1.025307,0.4102 -0.249981,0.2812 -0.351535,0.6211 -0.351534,0.9961 -10e-7,0.3594 0.101553,0.6856 0.351534,0.9669 0.249978,0.2812 0.603465,0.4101 1.025307,0.4101 0.421838,0 0.74603,-0.1289 0.996013,-0.4101 0.265599,-0.2813 0.410119,-0.6075 0.410123,-0.9669 -4e-6,-0.375 -0.144524,-0.7149 -0.410123,-0.9961 -0.249983,-0.2813 -0.574175,-0.4102 -0.996013,-0.4102 z" fill="#000000" fill-opacity="1" stroke="none"></path><text xml:space="preserve" style="letter-spacing:0px;word-spacing:0px;" x="181.19939" y="1004.358" transform="scale(0.99993898,1.000061)" font-style="normal" font-weight="normal" font-size="37.49923325px" line-height="125%" font-family="Sans" fill="#000000" fill-opacity="1" stroke="none"><tspan x="181.19939" y="1004.358"></tspan></text><path style="color:#000000;text-indent:0;text-decoration-line:none;text-transform:none;direction:ltr;block-progression:tb;baseline-shift:baseline;enable-background:accumulate;" d="M 49.998166,957.36219 C 25.154328,957.34771 5,977.52356 5,1002.3622 c 0,24.8386 20.154324,45 44.998166,45 24.843848,0 44.981144,-20.1615 45.001828,-45 4.25e-4,-0.5111 -0.02104,-0.9614 -0.03662,-1.4484 -0.754655,-23.58557 -19.666819,-42.56323 -43.216697,-43.50766 -0.586398,-0.0235 -1.175366,-0.0436 -1.748515,-0.0439 z m 0,1.86958 c 0.539287,0 1.073054,0.0207 1.607536,0.0403 0.827378,0.17431 1.392855,0.83428 1.391488,1.5766 -0.01649,0.48925 0.346388,0.9088 0.833062,0.96317 0.566242,0.0623 1.05681,-0.3903 1.039953,-0.95951 9.23e-4,-0.49071 -0.105991,-0.95488 -0.296606,-1.37518 20.218631,2.13151 36.267376,18.2175 38.324516,38.46653 -0.426329,-0.19699 -0.897359,-0.30673 -1.396982,-0.3058 -0.568635,-0.0165 -1.020833,0.47292 -0.959394,1.03825 0.05329,0.48721 0.473036,0.85113 0.963057,0.835 0.745835,-0.002 1.407388,0.56778 1.57824,1.40078 0.01594,0.4824 0.03661,0.964 0.03661,1.4503 0,23.8334 -19.299191,43.1286 -43.121488,43.1286 -23.822294,0 -43.1178258,-19.2952 -43.1178258,-43.1286 0,-23.83353 19.2955318,-43.13043 43.1178258,-43.13043 z" display="inline" overflow="visible" visibility="visible" fill="#000000" fill-opacity="1" stroke="none" marker="none"></path><path style="color:#000000;text-indent:0;text-decoration-line:none;text-transform:none;direction:ltr;block-progression:tb;baseline-shift:baseline;enable-background:accumulate;" d="m 272.1875,707.3125 c -3.97527,0 -7.21875,3.24348 -7.21875,7.21875 l 0,44.15625 c 0,3.97527 3.24348,7.21875 7.21875,7.21875 l 46.6875,0 c 3.97527,0 7.21875,-3.24348 7.21875,-7.21875 l 0,-44.15625 c 0,-3.97527 -3.24348,-7.21875 -7.21875,-7.21875 l -46.6875,0 z m 0,2.375 46.6875,0 c 2.69511,0 4.8125,2.14864 4.8125,4.84375 l 0,44.15625 c 0,2.69511 -2.11739,4.84375 -4.8125,4.84375 l -46.6875,0 c -2.69511,0 -4.8125,-2.14864 -4.8125,-4.84375 l 0,-44.15625 c 0,-2.69511 2.11739,-4.84375 4.8125,-4.84375 z" clip-path="url(#a)" transform="matrix(0.78621342,0,0,0.7859257,-155.32519,397.56)" display="inline" overflow="visible" visibility="visible" fill="#000000" fill-opacity="1" stroke="none" marker="none"></path></g></svg>