<svg height='100px' width='100px'  fill="#000000" xmlns="http://www.w3.org/2000/svg" xmlns:xlink="http://www.w3.org/1999/xlink" version="1.1" x="0px" y="0px" viewBox="0 0 100 100" style="enable-background:new 0 0 100 100;" xml:space="preserve"><path d="M50.4,0L7.1,25v50l43.3,25l43.3-25V25L50.4,0z M89.6,26.1l-28,15.4L50.3,35l-11.3,6.5L11.2,26.1L50.4,3.5L89.6,26.1z   M50.3,61l-9.2-5.3l9.2-4.9l9.2,4.9L50.3,61z M60.6,54l-9.2-4.9V37.9l9.2,5.3V54z M49.3,49.1L40.1,54V43.2l9.2-5.3V49.1z M10.1,27.8  l28,15.4v13l0.5,0.3c0,0,0,0,0,0l10.8,6.2l0.1,33.2L10.1,73.3V27.8z M51.4,95.9l-0.1-33.2l10.8-6.2c0,0,0,0,0,0l0.5-0.3v-13  l28.1-15.4v45.4L51.4,95.9z"></path></svg>