<svg height='100px' width='100px'  fill="#000000" xmlns="http://www.w3.org/2000/svg" data-name="Layer 2" viewBox="0 0 32 32" x="0px" y="0px"><title>development</title><path d="M28.14,1.5H3.86A2.36,2.36,0,0,0,1.5,3.86V21.14A2.36,2.36,0,0,0,3.86,23.5H13.5v4H11a1.5,1.5,0,0,0,0,3H21a1.5,1.5,0,0,0,0-3H18.5v-4h9.64a2.36,2.36,0,0,0,2.36-2.36V3.86A2.36,2.36,0,0,0,28.14,1.5ZM3.86,2.5H28.14A1.36,1.36,0,0,1,29.5,3.86V18.5H2.5V3.86A1.36,1.36,0,0,1,3.86,2.5ZM21,28.5a.5.5,0,0,1,0,1H11a.5.5,0,0,1,0-1H21Zm-3.5-1h-3v-4h3Zm10.64-5H3.86A1.36,1.36,0,0,1,2.5,21.14V19.5h27v1.64A1.36,1.36,0,0,1,28.14,22.5Z"></path><circle cx="16" cy="21" r="0.71"></circle><path d="M5.5,14.5A.5.5,0,0,0,6,14V10.5H9V14a.5.5,0,0,0,1,0V7A.5.5,0,0,0,9,7V9.5H6V7A.5.5,0,0,0,5,7v7A.5.5,0,0,0,5.5,14.5Z"></path><path d="M11.5,7.5H13V14a.5.5,0,0,0,1,0V7.5h1.5a.5.5,0,0,0,0-1h-4a.5.5,0,0,0,0,1Z"></path><path d="M17.5,14.5A.5.5,0,0,0,18,14V8.21l1.15,1.14a.48.48,0,0,0,.7,0L21,8.21V14a.5.5,0,0,0,1,0V7a.5.5,0,0,0-.31-.46.47.47,0,0,0-.54.11L19.5,8.29,17.85,6.65a.47.47,0,0,0-.54-.11A.5.5,0,0,0,17,7v7A.5.5,0,0,0,17.5,14.5Z"></path><path d="M23.5,14.5h3a.5.5,0,0,0,0-1H24V7a.5.5,0,0,0-1,0v7A.5.5,0,0,0,23.5,14.5Z"></path></svg>