<svg height='100px' width='100px'  fill="#000000" xmlns:x="http://ns.adobe.com/Extensibility/1.0/" xmlns:i="http://ns.adobe.com/AdobeIllustrator/10.0/" xmlns:graph="http://ns.adobe.com/Graphs/1.0/" xmlns="http://www.w3.org/2000/svg" xmlns:xlink="http://www.w3.org/1999/xlink" version="1.1" x="0px" y="0px" viewBox="0 0 100 100" style="enable-background:new 0 0 100 100;" xml:space="preserve"><g><g i:extraneous="self"><g><path d="M95.3,58.2L83.9,43.4c0,0,0,0,0,0l0-0.1l0,0c-0.2-0.3-0.6-0.6-1-0.7l-17.5-6.1c3.2-3.6,5.1-8.3,5.1-13.5     c0-11.3-9.2-20.5-20.5-20.5S29.5,11.7,29.5,23c0,5.2,1.9,9.9,5.1,13.5l-17.5,6.1c-0.4,0.1-0.7,0.4-1,0.7l0,0L4.7,58.2     c-0.4,0.5-0.6,1.3-0.4,1.9c0.2,0.7,0.7,1.2,1.4,1.4l9.9,3.5V84c0,0.9,0.6,1.7,1.4,2l32.2,11.3c0.2,0.1,0.5,0.1,0.7,0.1     s0.5,0,0.7-0.1l32.2-11.3c0.9-0.3,1.4-1.1,1.4-2V65l9.9-3.5c0.7-0.2,1.2-0.8,1.4-1.4C95.8,59.4,95.7,58.7,95.3,58.2z M33.8,23     c0-8.9,7.3-16.2,16.2-16.2S66.2,14.1,66.2,23S58.9,39.2,50,39.2S33.8,32,33.8,23z M10,58.4l8.6-11.2l29,10.2l-5.9,12.2L10,58.4z      M47.8,92.3L20,82.5v-16l22.2,7.8c0.2,0.1,0.5,0.1,0.7,0.1c0.8,0,1.6-0.5,1.9-1.2l3-6.3V92.3z M50,53.7l-25.7-9l13.9-4.9     c3.3,2.4,7.4,3.7,11.8,3.7s8.4-1.4,11.8-3.7l13.9,4.9L50,53.7z M80,82.5l-27.9,9.8V66.9l3,6.3c0.4,0.8,1.1,1.2,1.9,1.2     c0.2,0,0.5,0,0.7-0.1L80,66.5V82.5z M58.2,69.6l-5.9-12.2l29-10.2L90,58.4L58.2,69.6z"></path><path d="M46.8,29c0.4,0.4,1,0.7,1.6,0.7c0.6,0,1.2-0.2,1.6-0.7l8.5-8.9c0.8-0.9,0.8-2.2-0.1-3c-0.9-0.8-2.2-0.8-3,0.1l-6.9,7.3     l-3.7-3.8c-0.8-0.9-2.2-0.9-3-0.1c-0.9,0.8-0.9,2.2-0.1,3L46.8,29z"></path></g></g></g></svg>