<svg height='100px' width='100px'  fill="#000000" xmlns="http://www.w3.org/2000/svg" data-name="Layer 1" viewBox="0 0 512 512" x="0px" y="0px"><title>N_P_030Artboard 1</title><path d="M444.72,128.78H441.2a16.45,16.45,0,0,0-14-25.21H396.57a16.47,16.47,0,0,0-14-25.22H334.4c-1.94,0-48-.81-64.48,20.85-13.45,17.69-51.52,17.09-55.19,17V113a16.45,16.45,0,0,0-25.21-14v-8.3a16.47,16.47,0,0,0-25.22-14v-8.4a16.49,16.49,0,1,0-33,0v3.52a16.47,16.47,0,0,0-25.22,14v30.66A16.34,16.34,0,0,0,97.39,114,16.51,16.51,0,0,0,80.9,130.53v48.21c0,1.95-.81,48,20.85,64.48,18.47,14,17,54.89,17,55.47v1.83h-6.81a16.46,16.46,0,0,0-14,25.21h-8.3a16.45,16.45,0,0,0-14,25.22h-8.4a16.49,16.49,0,1,0,0,33H70.8a16.45,16.45,0,0,0,14,25.21h30.67a16.47,16.47,0,0,0,14,25.22H179c8.14,0,48-1,63.08-20.86,14-18.47,54.9-17,55.47-17h1.6V399a16.45,16.45,0,0,0,25.21,14v8.3a16.47,16.47,0,0,0,25.22,14v8.4a16.49,16.49,0,1,0,33,0v-3.52a16.47,16.47,0,0,0,25.22-14V395.44a16.34,16.34,0,0,0,8.72,2.52A16.51,16.51,0,0,0,433,381.47V333.26c0-1.95.81-48-20.85-64.48-18.47-14-17-54.89-17-55.47v-1.13h4.93a16.46,16.46,0,0,0,14-25.21h8.3a16.45,16.45,0,0,0,14-25.21h8.4a16.49,16.49,0,0,0,0-33Zm-127.07,83.4V216c-.55,12.36-3.34,46.44-9.5,55.53-8.7,12.81-9,33.21-9,34.11V319h-4.27c-12.36-.56-46.44-3.34-55.53-9.51-12.81-8.69-33.21-9-34.11-9h-9V296c.56-12.36,3.34-46.44,9.51-55.53,8.69-12.81,9-33.21,9-34.11V193.68h2.39c12.36.55,46.44,3.33,55.53,9.5,12.81,8.69,33.21,9,34.11,9ZM126.48,298.85c.08-1.84,1.67-45.32-20-61.82C87.93,223,88.65,179.34,88.66,178.82V130.53a8.73,8.73,0,1,1,17.45,0v32a3.89,3.89,0,0,0,7.77,0V85.9a8.73,8.73,0,1,1,17.45,0v68.62a3.88,3.88,0,0,0,7.76,0V68.41a8.73,8.73,0,1,1,17.45,0v79.81a3.88,3.88,0,0,0,7.76,0V90.78a8.73,8.73,0,1,1,17.46,0v64.05a3.88,3.88,0,0,0,7.76,0V113A8.73,8.73,0,0,1,207,113v93.29c0,.19-.28,18.9-7.67,29.79-8.5,12.54-10.62,54.77-10.83,59.72v4.68h-62Zm171.24,89.92c-1.84-.08-45.33-1.67-61.82,20-14.07,18.51-57.68,17.78-58.21,17.79h-48.3a8.73,8.73,0,0,1,0-17.46h32a3.88,3.88,0,1,0,0-7.76H84.76a8.73,8.73,0,0,1,0-17.45h68.63a3.88,3.88,0,1,0,0-7.76H67.28a8.73,8.73,0,1,1,0-17.45h79.8a3.88,3.88,0,1,0,0-7.76H89.64a8.73,8.73,0,0,1,0-17.46h64.05a3.88,3.88,0,0,0,0-7.76H111.91a8.73,8.73,0,1,1,0-17.45H205.2c.19,0,18.9.28,29.79,7.67,12.54,8.5,54.77,10.62,59.72,10.83h4.44v62ZM387.4,213.15c-.08,1.84-1.66,45.32,20,61.81,18.52,14.07,17.8,57.7,17.79,58.22v48.29a8.73,8.73,0,1,1-17.45,0v-32a3.89,3.89,0,0,0-7.77,0V426.1a8.73,8.73,0,1,1-17.45,0V357.48a3.88,3.88,0,0,0-7.76,0v86.11a8.73,8.73,0,1,1-17.45,0V363.78a3.88,3.88,0,0,0-7.76,0v57.44a8.73,8.73,0,1,1-17.45,0V357.17a3.89,3.89,0,0,0-7.77,0V399a8.73,8.73,0,0,1-17.45,0V305.67c0-.19.28-18.9,7.67-29.79,8.5-12.54,10.62-54.77,10.84-59.72v-4h62ZM444.72,154h-79.8a3.88,3.88,0,1,0,0,7.76h57.44a8.73,8.73,0,0,1,0,17.45H358.31a3.88,3.88,0,0,0,0,7.76h41.78a8.73,8.73,0,1,1,0,17.45H306.8c-.19,0-18.9-.27-29.79-7.66-12.54-8.51-54.77-10.62-59.72-10.84h-2.56V124c.53,0,1.46,0,2.73,0,10.61,0,44.52-1.51,58.64-20.09s57.7-17.77,58.21-17.78h48.3a8.73,8.73,0,0,1,0,17.45h-32a3.88,3.88,0,1,0,0,7.76h76.66a8.73,8.73,0,0,1,0,17.45H358.61a3.88,3.88,0,0,0,0,7.76h86.11a8.73,8.73,0,0,1,0,17.46Z"></path></svg>