<svg height='100px' width='100px'  fill="#000000" xmlns="http://www.w3.org/2000/svg" xmlns:xlink="http://www.w3.org/1999/xlink" version="1.1" x="0px" y="0px" viewBox="0 0 130 130" style="enable-background:new 0 0 130 130;" xml:space="preserve"><g><path d="M125.4350586,0H4.5649414C2.0478516,0,0,2.0478516,0,4.5644531v120.8701172C0,127.9521484,2.0478516,130,4.5649414,130   h120.8701172C127.9521484,130,130,127.9521484,130,125.4345703V4.5644531C130,2.0478516,127.9521484,0,125.4350586,0z    M128,125.4345703C128,126.8496094,126.8491211,128,125.4350586,128H4.5649414C3.1508789,128,2,126.8496094,2,125.4345703   V30.4091797h126V125.4345703z M128,28.4091797H2V4.5644531C2,3.1503906,3.1508789,2,4.5649414,2h120.8701172   C126.8491211,2,128,3.1503906,128,4.5644531V28.4091797z"></path><path d="M113.4526367,9.3417969c-3.4838867,0-6.3178711,2.8339844-6.3178711,6.3173828   c0,3.484375,2.8339844,6.3183594,6.3178711,6.3183594s6.3178711-2.8339844,6.3178711-6.3183594   C119.7705078,12.1757813,116.9365234,9.3417969,113.4526367,9.3417969z M113.4526367,19.9775391   c-2.3808594,0-4.3178711-1.9375-4.3178711-4.3183594s1.9370117-4.3173828,4.3178711-4.3173828   s4.3178711,1.9365234,4.3178711,4.3173828S115.8334961,19.9775391,113.4526367,19.9775391z"></path><path d="M96.3125,9.3417969c-3.4838867,0-6.3183594,2.8339844-6.3183594,6.3173828   c0,3.484375,2.8344727,6.3183594,6.3183594,6.3183594s6.3178711-2.8339844,6.3178711-6.3183594   C102.6303711,12.1757813,99.7963867,9.3417969,96.3125,9.3417969z M96.3125,19.9775391   c-2.3813477,0-4.3183594-1.9375-4.3183594-4.3183594s1.9370117-4.3173828,4.3183594-4.3173828   c2.3808594,0,4.3178711,1.9365234,4.3178711,4.3173828S98.6933594,19.9775391,96.3125,19.9775391z"></path><path d="M79.171875,9.3417969c-3.4838867,0-6.3178711,2.8339844-6.3178711,6.3173828   c0,3.484375,2.8339844,6.3183594,6.3178711,6.3183594s6.3183594-2.8339844,6.3183594-6.3183594   C85.4902344,12.1757813,82.6557617,9.3417969,79.171875,9.3417969z M79.171875,19.9775391   c-2.3808594,0-4.3178711-1.9375-4.3178711-4.3183594s1.9370117-4.3173828,4.3178711-4.3173828   c2.3813477,0,4.3183594,1.9365234,4.3183594,4.3173828S81.5532227,19.9775391,79.171875,19.9775391z"></path><path d="M62.8540039,14.6591797h-51.625c-0.5522461,0-1,0.4472656-1,1s0.4477539,1,1,1h51.625c0.5522461,0,1-0.4472656,1-1   S63.40625,14.6591797,62.8540039,14.6591797z"></path><path d="M45.6767578,117.5126953c4.8657227,0,9.7314453-1.8515625,13.4355469-5.5556641l13.8188477-13.8183594   c1.9237061-1.9243164,3.3619995-4.1806641,4.3153076-6.6943359c2.5131836-0.9526367,4.7694702-2.3903809,6.6934814-4.3144531   l13.8115234-13.8125c3.590332-3.5898438,5.5673828-8.359375,5.5673828-13.4277344   c0.0068359-5.0722656-1.9702148-9.8466797-5.5673828-13.4433594c-7.4047852-7.4042969-19.456543-7.4023438-26.8642578,0.0068359   L57.0756836,60.2646484c-1.9241333,1.9240723-3.3623047,4.1816406-4.3157349,6.6943359   c-2.5126953,0.9526367-4.7686157,2.390625-6.6930542,4.3144531L32.2480469,85.0927734   c-3.5898438,3.5898438-5.5668945,8.3583984-5.5668945,13.4287109c0,5.078125,1.9746094,9.8496094,5.5600586,13.4355469   C35.9453125,115.6611328,40.8110352,117.5126953,45.6767578,117.5126953z M58.4897461,61.6787109l13.8115234-13.8115234   c6.628418-6.6279297,17.4106445-6.6308594,24.0361328-0.0068359c3.21875,3.21875,4.987793,7.4902344,4.9814453,12.0283203   c0,4.5351563-1.769043,8.8017578-4.9814453,12.0146484l-13.8115234,13.8125   c-1.8227539,1.8222656-3.9677734,3.1748047-6.3725586,4.0205078c-2.2329102,0.7783203-4.6362305,1.0908203-6.9482422,0.9091797   c-4.0385742-0.3037109-7.8461914-2.0546875-10.722168-4.9296875c-2.7339478-2.7338867-4.4325562-6.3125-4.8513794-10.1259766   c1.2686157-0.7763672,2.6734009-1.2802734,4.1591797-1.4851074c0.152771,3.2028809,1.4841919,6.2668457,3.7600708,8.5427246   c2.4370117,2.4375,5.6816406,3.7792969,9.1362305,3.7792969l0.5615234-0.0078125   C73.6640625,86.3222656,76,85.5400391,78,84.1611328c0.6445313-0.4384766,1.2578125-0.9482422,1.8232422-1.5136719   l13.4462891-13.4462891c5.0380859-5.0380859,5.0380859-13.234375,0-18.2724609   c-2.4375-2.4375-5.6821289-3.7802734-9.1342773-3.7802734c-0.0087891,0-0.0166016,0-0.0253906,0   c-3.4389648,0-6.6748047,1.3417969-9.112793,3.7802734L61.5507813,64.375   c-0.4318237,0.4313965-0.8175659,0.8964844-1.1764526,1.375c-1.732605-0.079834-3.4460449,0.0620117-5.1196289,0.4443359   C56.0720215,64.5322266,57.1515503,63.017334,58.4897461,61.6787109z M67.2194214,92.404541   c-0.0657349,0.0690918-0.12323,0.1413574-0.1915894,0.2097168l-13.4389648,13.4394531   c-2.0644531,2.0644531-4.809082,3.2011719-7.7290039,3.2011719c-2.9111328,0-5.6513672-1.1367188-7.7158203-3.2011719   c-4.2573242-4.2578125-4.2573242-11.1865234,0-15.4443359l13.4394531-13.4394531   c0.0690918-0.0690918,0.1444702-0.1291504,0.2150879-0.1962891c0.6641235,3.8249512,2.4938354,7.3793945,5.2702637,10.15625   C59.8435669,89.904541,63.3972778,91.7355957,67.2194214,92.404541z M59.7868042,73.9987793   c2.7324219,0.1123047,5.2896729,1.2197266,7.2410278,3.1711426c1.9328003,1.9328613,3.0568848,4.5266113,3.175293,7.2333984   c-2.7375488-0.1186523-5.293457-1.2250977-7.2382813-3.1699219C61.0384521,79.3071289,59.913147,76.7121582,59.7868042,73.9987793z    M72.9243164,71.2734375c-2.7744751-2.7739258-6.3271484-4.6047363-10.1513062-5.2741699   c0.0655518-0.0690918,0.1242676-0.1425781,0.1918335-0.2102051l13.4462891-13.4462891   c2.0605469-2.0605469,4.7939453-3.1943359,7.7006836-3.1943359c2.940918,0.0292969,5.6782227,1.1298828,7.7436523,3.1943359   c4.2578125,4.2578125,4.2578125,11.1865234,0,15.4443359L78.4091797,81.2333984   c-0.065979,0.065918-0.1382446,0.1235352-0.2056885,0.1875C77.5294189,77.597168,75.696167,74.0454102,72.9243164,71.2734375z    M33.6621094,86.5068359L47.480957,72.6875c1.8227539-1.8222656,3.9677734-3.1757813,6.3720703-4.0205078   c2.2314453-0.7792969,4.565918-1.0869141,6.9350586-0.9091797c4.0380859,0.3037109,7.8457031,2.0546875,10.722168,4.9296875   c2.7293701,2.7294922,4.4334106,6.3046875,4.864563,10.1166992c-1.2892456,0.7924805-2.7094116,1.3024902-4.1748657,1.5036621   c-0.1422729-3.2006836-1.4726563-6.2670898-3.7580566-8.552002c-2.4375-2.4375-5.6708984-3.7792969-9.1064453-3.7792969   c-0.2182617,0.0068359-0.4257813,0.0009766-0.5976563,0.0146484c-2.4165039,0.0966797-4.7475586,0.8740234-6.7387695,2.2441406   c-0.6450195,0.4404297-1.2607422,0.9511719-1.8295898,1.5205078L36.7299805,89.1953125   c-5.0371094,5.0380859-5.0371094,13.234375,0,18.2724609c2.4418945,2.4423828,5.6845703,3.7871094,9.1298828,3.7871094   c3.4541016,0,6.7011719-1.3447266,9.1430664-3.7871094l13.4389648-13.4394531   c0.4351196-0.4350586,0.8140869-0.8916016,1.1708984-1.3666992c0.2952881,0.0141602,0.5896606,0.034668,0.8867188,0.034668   c1.421875,0,2.8548584-0.1772461,4.2576294-0.4970703c-0.8180542,1.6665039-1.8998413,3.1848145-3.2400513,4.5253906   l-13.8188477,13.8183594c-6.6289063,6.6279297-17.4140625,6.6279297-24.0429688,0   c-3.2075195-3.2089844-4.9741211-7.4775391-4.9741211-12.0214844C28.6811523,93.9863281,30.4501953,89.71875,33.6621094,86.5068359   z"></path></g></svg>