<svg height='100px' width='100px'  fill="#000000" xmlns="http://www.w3.org/2000/svg" xmlns:xlink="http://www.w3.org/1999/xlink" version="1.1" x="0px" y="0px" viewBox="0 0 64 64" style="enable-background:new 0 0 64 64;" xml:space="preserve"><path d="M30,30v12h32V30H30z M60,40H32v-8h28V40z"></path><path d="M30,56h15v4H2v2h60v-2H47v-4h15V44H30V56z M32,46h28v8H32V46z"></path><rect x="56" y="35" width="2" height="2"></rect><rect x="52" y="35" width="2" height="2"></rect><rect x="48" y="35" width="2" height="2"></rect><rect x="56" y="49" width="2" height="2"></rect><rect x="52" y="49" width="2" height="2"></rect><rect x="48" y="49" width="2" height="2"></rect><path d="M24,46c1.4,0,2.7-0.1,4-0.4v-3c-1.1,0.9-2.4,1.4-4,1.4c-0.2,0-0.4,0-0.6,0c-3.1-0.3-5.5-3-7.1-6.8c3.9-1.1,7.8-1.4,11.7-0.8  v-2c-4.1-0.6-8.3-0.3-12.4,0.9c-1-3.1-1.5-6.6-1.6-10.2h20c0,1-0.1,2-0.2,3h2c0.1-1,0.1-2,0.2-3h8c-0.1,1-0.2,2-0.4,3h2.1  c0.2-1.3,0.4-2.6,0.4-4c0-12.1-9.9-22-22-22C12,2.1,2,11.9,2,24S11.9,46,24,46z M14.4,37.7c0.8,2,1.8,3.8,3,5.1  c-2.4-0.8-4.6-2-6.4-3.7C12.1,38.6,13.3,38.1,14.4,37.7z M14,23c0.1-3.7,0.6-7.3,1.6-10.2c2.8,0.8,5.6,1.2,8.4,1.2s5.6-0.4,8.4-1.2  c1,3.1,1.5,6.6,1.6,10.2H14z M43.9,23h-8c-0.1-3.7-0.6-7.5-1.7-10.8c1.4-0.5,2.8-1.1,4.3-1.8C41.7,13.7,43.7,18.1,43.9,23z M37,8.9  c-1.1,0.5-2.3,1-3.4,1.4c-0.8-2-1.8-3.8-3-5.1C33,6,35.2,7.2,37,8.9z M24,4c0.2,0,0.4,0,0.6,0c3.1,0.3,5.5,3,7.1,6.8  c-5.1,1.4-10.3,1.4-15.4,0c0.1-0.3,0.2-0.6,0.4-0.9C17.9,7.3,20.2,4,24,4z M17.4,5.1c-1,1.1-1.8,2.4-2.6,4c-0.2,0.4-0.3,0.7-0.5,1.1  c-1.1-0.4-2.3-0.9-3.4-1.4C12.8,7.2,15,6,17.4,5.1z M9.4,10.3c1.4,0.7,2.8,1.3,4.3,1.8c-1,3.2-1.6,6.9-1.7,10.8H4  C4.3,18.1,6.3,13.7,9.4,10.3z M12.1,25c0.1,3.7,0.6,7.5,1.7,10.8c-1.4,0.5-2.8,1.1-4.3,1.8C6.3,34.3,4.3,29.9,4.1,25H12.1z"></path></svg>