<svg width="675" height="59" viewBox="0 0 675 59" fill="none" xmlns="http://www.w3.org/2000/svg">
<path fill-rule="evenodd" clip-rule="evenodd" d="M0 1.16455C0 1.16455 0.000179434 1.16455 0.183916 1.16455L46.118 38.3396L92.052 1.16455H92.2356V13.4234L46.4854 51.8549L9.95238 22.066H9.76884V57.065H0.245221L0 1.16455ZM82.6813 57.1264H92.4195V28.8696H83.0185L82.6813 57.1264Z" fill="#4ECAFF"/>
<path fill-rule="evenodd" clip-rule="evenodd" d="M158.163 1.99268C168.606 1.99268 179.048 8.94949 179.048 19.7067V25.6522H169.279V19.7067C169.279 16.2435 165.36 11.7691 158.163 11.7691H124.815C117.619 11.7691 113.699 16.2435 113.699 19.7067V25.6522H103.931V19.7067C103.931 8.94949 114.373 1.99268 124.815 1.99268H158.163ZM179.048 35.4287V38.9225C179.048 49.649 168.606 56.606 158.163 56.606H124.815C114.373 56.606 103.931 49.649 103.931 38.9225V35.4287H113.852V38.9225C113.852 42.355 117.772 46.8295 124.968 46.8295H158.317C165.513 46.8295 169.433 42.355 169.433 38.9225V35.4287H179.048Z" fill="#4ECAFF"/>
<path fill-rule="evenodd" clip-rule="evenodd" d="M269.425 38.9224V19.7066C269.425 8.94939 258.982 1.99249 248.418 2.48284H194.307V12.0141H194.338V31.843H205.271V12.0141H248.418C255.614 12.0141 259.564 16.4887 259.564 19.9518V39.1676C259.564 42.6001 255.614 47.0745 248.418 47.0745H194.307V56.6059H248.54C258.982 56.6059 269.425 49.6489 269.425 38.9224Z" fill="#4ECAFF"/>
<path fill-rule="evenodd" clip-rule="evenodd" d="M294.45 24.3657H338.363V33.8969H284.712V2.14648H361.269V11.6777H294.297L294.45 24.3657ZM284.681 56.5453H361.238V46.9834H284.681V56.5453Z" fill="#4ECAFF"/>
<path fill-rule="evenodd" clip-rule="evenodd" d="M444.264 56.758V56.9419H432.842L415.877 30.9224V30.7385H430.484C436.241 30.7385 439.028 27.214 439.028 24.9155V17.6828C439.028 15.3843 436.241 11.8291 430.484 11.8291H375.118V2.29785H430.484C439.487 2.29785 448.858 8.4274 448.858 17.928V25.1607C448.858 33.5887 441.661 39.2891 433.791 40.4843V40.6375L444.264 56.758Z" fill="#4ECAFF"/>
<path d="M384.459 55.6534H375.058V26.8135H384.459V55.6534Z" fill="#4ECAFF"/>
<path d="M404.088 40.3605L403.937 30.6169L422.318 30.7701L422.469 40.3605H404.088Z" fill="#4ECAFF"/>
<path fill-rule="evenodd" clip-rule="evenodd" d="M466.222 0C466.222 0 466.222 0 466.405 0L521.067 38.7381V1.40984H530.836V57.3717C530.836 57.3717 530.835 57.3717 530.652 57.3717L466.13 11.4009L466.222 0ZM466.222 55.7473H475.715V28.7778H466.528L466.222 55.7473Z" fill="#4ECAFF"/>
<path d="M560.327 49.6138H551.289V58.6345H560.327V49.6138Z" fill="#4ECAFF"/>
<path fill-rule="evenodd" clip-rule="evenodd" d="M662.724 52.4071C666.269 52.4071 668.019 50.1167 668.019 48.6347V47.6914C667.836 46.69 667.32 45.7803 666.554 45.1112C665.787 44.4421 664.817 44.0533 663.8 44.0087V37.4967C666.488 37.5938 669.042 38.6936 670.961 40.5803C672.879 42.4669 674.023 45.0036 674.167 47.6914V48.6347C673.993 51.5064 672.693 54.1933 670.55 56.1109C668.407 58.0286 665.594 59.0216 662.724 58.8743H626.06V52.4071H662.724ZM629.677 41.3799C627.534 39.4622 626.234 36.7753 626.06 33.9036V33.0056C626.222 30.1296 627.519 27.4354 629.665 25.5153C631.81 23.5953 634.63 22.6064 637.504 22.7657H674.167V29.188H637.504C633.958 29.188 632.208 31.5235 632.208 33.0056V33.9036C632.208 35.3857 633.958 37.6763 637.504 37.6763V37.6768H655.858V44.144H637.494C634.626 44.2887 631.817 43.2954 629.677 41.3799ZM615.56 23.0806H608.783V43.8296H608.829V48.5437C608.829 50.385 606.091 53.0348 601.155 53.0348H578.717C578.63 53.0458 578.549 53.0884 578.492 53.1546C578.434 53.2208 578.402 53.3062 578.403 53.3942V58.5141C578.402 58.6021 578.434 58.6872 578.492 58.7534C578.549 58.8197 578.63 58.8622 578.717 58.8732H601.155C608.335 58.8732 615.56 54.7415 615.56 48.3192V40.1003L615.56 40.0987V23.0806Z" fill="#4ECAFF"/>
</svg>
