<svg height='100px' width='100px'  xmlns="http://www.w3.org/2000/svg" xmlns:xlink="http://www.w3.org/1999/xlink" viewBox="0 0 60 60" version="1.1" x="0px" y="0px"><title>012 - Computer Thoughts</title><desc>Created with Sketch.</desc><g stroke="none" stroke-width="1" fill-rule="evenodd"><g fill-rule="nonzero"><path d="M0.36,33.859 C-0.0644455646,34.4700348 -0.114638064,35.2661705 0.229706222,35.9256738 C0.574050508,36.5851771 1.256013,36.999035 2,37 L3.5,37 C3.84480965,37.6090457 4.01763407,38.3003434 4,39 C4.00832504,39.5708401 3.89551058,40.1369574 3.669,40.661 C3.44824771,41.1785027 3.46468621,41.7666357 3.714,42.271 C3.96338828,42.7714899 4.42007781,43.137134 4.963,43.271 L5.579,43.421 C5.14242368,43.7839315 4.88992898,44.3222693 4.89,44.89 C4.88443005,45.6177159 5.29869331,46.2834962 5.954,46.6 C6.09022168,46.6659754 6.23964257,46.7001678 6.391,46.7 C6.47390786,46.7005316 6.54841728,46.7507147 6.58007291,46.8273431 C6.61172853,46.9039715 6.59436038,46.9921097 6.536,47.051 L5.536,48.051 C4.63859869,48.9528838 4.14792073,50.1818065 4.17736489,51.4537564 C4.20680905,52.7257063 4.75382719,53.9306076 5.692,54.79 C6.5850442,55.5883037 7.74633528,56.0203954 8.944,56 L16.66,56 C17.5757531,56.0018118 18.3740304,56.6235628 18.6,57.511 L19.029,59.241 C19.1397719,59.6870872 19.5403652,60.0002183 20,60 L49,60 C49.5522847,60 50,59.5522847 50,59 L50,48.922 C49.9896216,48.3582781 50.2246235,47.8178468 50.644,47.441 C59.3937487,39.8795169 62.3564822,27.5854205 58.0116633,16.8682997 C53.6668444,6.1511789 42.9793391,-0.608985674 31.4341999,0.0572645803 C19.8890606,0.723514834 10.0501485,8.66822387 6.967,19.814 C6.73213687,20.6750315 6.88167151,21.5955813 7.377,22.338 C7.49978882,22.5265547 7.56670111,22.7460131 7.57,22.971 C7.56981616,23.2019959 7.49821275,23.4272846 7.365,23.616 L0.36,33.859 Z M9.053,21.246 C8.87131435,20.9835158 8.8135842,20.6546731 8.895,20.346 C11.7439001,10.020168 20.8533359,2.65586434 31.5468792,2.03363446 C42.2404225,1.41140458 52.1425093,7.66947646 56.1697956,17.5952008 C60.1970819,27.5209251 57.4549085,38.9093084 49.351,45.914 L49.346,45.914 C48.1525251,46.9462055 46.8648887,47.8642239 45.5,48.656 C45.1091084,48.882748 44.9188594,49.3434704 45.0358789,49.7799534 C45.1528985,50.2164363 45.5481037,50.5202005 46,50.521 C46.1756138,50.5215641 46.3482044,50.4753098 46.5,50.387 C47.013,50.087 47.5,49.754 48,49.423 L48,58 L20.782,58 L20.539,57.021 C20.4434042,56.6623167 20.2983456,56.3186861 20.108,56 L28.528,56 C31.6526075,56.0126664 34.5122323,54.2465416 35.9,51.447 C36.1468713,50.9527051 35.9462949,50.3518713 35.452,50.105 C34.9577051,49.8581287 34.3568713,50.0587051 34.11,50.553 C33.059452,52.6729515 30.8939547,54.0101907 28.528,54 L17,54 C16.964,54 16.934,54.017 16.9,54.02 C16.819,54.015 16.742,54 16.66,54 L8.944,54 C8.24792803,54.0210532 7.56949661,53.7789603 7.044,53.322 C6.50509389,52.8323355 6.18964109,52.1437525 6.17075919,51.4158551 C6.15187728,50.6879578 6.43120571,49.983946 6.944,49.467 L7.944,48.467 C8.4905816,47.9237635 8.71422939,47.1347696 8.53401629,46.3855163 C8.35380319,45.6362629 7.79583012,45.0352673 7.062,44.8 C7.59086127,44.3301842 7.81619984,43.6062167 7.64739352,42.9192484 C7.47858719,42.23228 6.94337578,41.6951998 6.257,41.524 L5.548,41.352 C5.85389443,40.6059538 6.00757186,39.8062872 6,39 C6.00368008,38.3201389 5.89487824,37.6443512 5.678,37 L5.76,37 C6.28990234,37.0020592 6.79762077,37.2129797 7.173,37.587 L7.293,37.707 C7.68537889,38.0859722 8.30908478,38.0805524 8.69481858,37.6948186 C9.08055237,37.3090848 9.08597221,36.6853789 8.707,36.293 L8.587,36.173 C7.83583306,35.425083 6.82000884,35.0035896 5.76,35 L4,35 L2,34.995 L9.012,24.751 C9.37563739,24.2286835 9.57038906,23.6074326 9.57,22.971 C9.56690983,22.3582808 9.38742373,21.7594152 9.053,21.246 Z"></path><path d="M30,33 L38,33 C39.6568542,33 41,31.6568542 41,30 L41,22 C41,20.3431458 39.6568542,19 38,19 L30,19 C28.3431458,19 27,20.3431458 27,22 L27,30 C27,31.6568542 28.3431458,33 30,33 Z M29,22 C29,21.4477153 29.4477153,21 30,21 L38,21 C38.5522847,21 39,21.4477153 39,22 L39,30 C39,30.5522847 38.5522847,31 38,31 L30,31 C29.4477153,31 29,30.5522847 29,30 L29,22 Z"></path><path d="M19,33 C18.4477153,33 18,33.4477153 18,34 C18,34.5522847 18.4477153,35 19,35 L22.142,35 C22.5061725,36.4002987 23.5997013,37.4938275 25,37.858 L25,41 C25,41.5522847 25.4477153,42 26,42 C26.5522847,42 27,41.5522847 27,41 L27,38 L29,38 L29,41 C29,41.5522847 29.4477153,42 30,42 C30.5522847,42 31,41.5522847 31,41 L31,38 L33,38 L33,41 C33,41.5522847 33.4477153,42 34,42 C34.5522847,42 35,41.5522847 35,41 L35,38 L37,38 L37,41 C37,41.5522847 37.4477153,42 38,42 C38.5522847,42 39,41.5522847 39,41 L39,38 L41,38 L41,41 C41,41.5522847 41.4477153,42 42,42 C42.5522847,42 43,41.5522847 43,41 L43,37.858 C44.4002987,37.4938275 45.4938275,36.4002987 45.858,35 L49,35 C49.5522847,35 50,34.5522847 50,34 C50,33.4477153 49.5522847,33 49,33 L46,33 L46,31 L49,31 C49.5522847,31 50,30.5522847 50,30 C50,29.4477153 49.5522847,29 49,29 L46,29 L46,27 L49,27 C49.5522847,27 50,26.5522847 50,26 C50,25.4477153 49.5522847,25 49,25 L46,25 L46,23 L49,23 C49.5522847,23 50,22.5522847 50,22 C50,21.4477153 49.5522847,21 49,21 L46,21 L46,19 L49,19 C49.5522847,19 50,18.5522847 50,18 C50,17.4477153 49.5522847,17 49,17 L45.858,17 C45.4938275,15.5997013 44.4002987,14.5061725 43,14.142 L43,11 C43,10.4477153 42.5522847,10 42,10 C41.4477153,10 41,10.4477153 41,11 L41,14 L39,14 L39,11 C39,10.4477153 38.5522847,10 38,10 C37.4477153,10 37,10.4477153 37,11 L37,14 L35,14 L35,11 C35,10.4477153 34.5522847,10 34,10 C33.4477153,10 33,10.4477153 33,11 L33,14 L31,14 L31,11 C31,10.4477153 30.5522847,10 30,10 C29.4477153,10 29,10.4477153 29,11 L29,14 L27,14 L27,11 C27,10.4477153 26.5522847,10 26,10 C25.4477153,10 25,10.4477153 25,11 L25,14.142 C23.5997013,14.5061725 22.5061725,15.5997013 22.142,17 L19,17 C18.4477153,17 18,17.4477153 18,18 C18,18.5522847 18.4477153,19 19,19 L22,19 L22,21 L19,21 C18.4477153,21 18,21.4477153 18,22 C18,22.5522847 18.4477153,23 19,23 L22,23 L22,25 L19,25 C18.4477153,25 18,25.4477153 18,26 C18,26.5522847 18.4477153,27 19,27 L22,27 L22,29 L19,29 C18.4477153,29 18,29.4477153 18,30 C18,30.5522847 18.4477153,31 19,31 L22,31 L22,33 L19,33 Z M26,16 L42,16 C43.1045695,16 44,16.8954305 44,18 L44,34 C44,35.1045695 43.1045695,36 42,36 L26,36 C24.8954305,36 24,35.1045695 24,34 L24,18 C24,16.8954305 24.8954305,16 26,16 Z"></path><path d="M32,25 L33,25 C33.5522847,25 34,24.5522847 34,24 C34,23.4477153 33.5522847,23 33,23 L32,23 C31.4477153,23 31,23.4477153 31,24 C31,24.5522847 31.4477153,25 32,25 Z"></path><path d="M35,29 L36,29 C36.5522847,29 37,28.5522847 37,28 C37,27.4477153 36.5522847,27 36,27 L35,27 C34.4477153,27 34,27.4477153 34,28 C34,28.5522847 34.4477153,29 35,29 Z"></path></g></g></svg>
