<svg height='100px' width='100px'  fill="#000000" xmlns="http://www.w3.org/2000/svg" data-name="Слой 1" viewBox="0 0 128 128" x="0px" y="0px"><title>ic_api_gears</title><path d="M86,86a15.76,15.76,0,1,0,22.29,0A15.77,15.77,0,0,0,86,86ZM105.5,105.5a11.75,11.75,0,0,1-16.63,0,11.76,11.76,0,1,1,16.63,0Z"></path><path d="M126.65,99.51a2,2,0,0,0-1.25-1l-3.16-.85q0-.5,0-1l3.16-.85a2,2,0,0,0,1.25-1c.31-.58,1.82-3.57,1.2-5.89s-3.43-4.15-4-4.5a2,2,0,0,0-1.57-.23l-3.15.85c-.16-.29-.33-.58-.5-.86L121,81.92a2,2,0,0,0,.59-1.48c0-.65-.21-4-1.91-5.7s-5-1.88-5.7-1.9a1.92,1.92,0,0,0-1.47.58l-2.31,2.31-.86-.5.84-3.15a2,2,0,0,0-.23-1.57c-.34-.56-2.18-3.36-4.5-4s-5.31.89-5.89,1.2a2,2,0,0,0-1,1.24l-.85,3.16h-1L95.84,69a2,2,0,0,0-1-1.24c-.58-.31-3.57-1.83-5.89-1.2s-4.16,3.42-4.5,4a2,2,0,0,0-.23,1.57l.85,3.15-.86.5-2.31-2.31a2,2,0,0,0-1.48-.58c-.65,0-4,.2-5.7,1.9s-1.88,5.05-1.9,5.7a2,2,0,0,0,.58,1.48l2.31,2.31c-.17.28-.34.57-.5.86l-3.15-.85a2,2,0,0,0-1.57.23c-.56.35-3.36,2.18-4,4.5s.89,5.31,1.2,5.89a2,2,0,0,0,1.24,1l3.16.85q0,.5,0,1L69,98.53a2,2,0,0,0-1.24,1c-.31.58-1.83,3.57-1.21,5.89s3.43,4.16,4,4.5a2,2,0,0,0,1.57.23l3.15-.84c.16.29.33.57.5.86l-2.31,2.31a2,2,0,0,0-.58,1.47c0,.65.2,4,1.9,5.7s5.05,1.89,5.7,1.91a2,2,0,0,0,1.48-.59l2.31-2.31.86.5-.85,3.15a2,2,0,0,0,.23,1.57c.34.56,2.18,3.36,4.5,4a4.89,4.89,0,0,0,1.21.15,11.27,11.27,0,0,0,4.68-1.35,2,2,0,0,0,1-1.25l.85-3.16q.5,0,1,0l.85,3.16a2,2,0,0,0,1,1.25c.58.31,3.57,1.82,5.89,1.2s4.16-3.43,4.5-4a2,2,0,0,0,.23-1.57l-.84-3.15.86-.5,2.31,2.31a1.93,1.93,0,0,0,1.47.59c.65,0,4-.21,5.7-1.91s1.89-5,1.91-5.7a2,2,0,0,0-.59-1.47l-2.31-2.31c.17-.29.34-.57.5-.86l3.15.84a2,2,0,0,0,1.57-.23c.56-.34,3.36-2.18,4-4.5S127,100.09,126.65,99.51ZM124,104.37a5,5,0,0,1-1.55,1.66l-3.82-1a2,2,0,0,0-2.33,1.09,21.56,21.56,0,0,1-1.84,3.17,2,2,0,0,0,.22,2.57l2.81,2.8a5.06,5.06,0,0,1-.67,2.17,5,5,0,0,1-2.17.67l-2.8-2.81a2,2,0,0,0-2.57-.22,19.91,19.91,0,0,1-3.17,1.84,2,2,0,0,0-1.09,2.33l1,3.82a5,5,0,0,1-1.66,1.55,4.86,4.86,0,0,1-2.22-.51l-1-3.83A2,2,0,0,0,99,118.17a22.49,22.49,0,0,1-3.67,0,2,2,0,0,0-2.1,1.47l-1,3.83A5,5,0,0,1,90,124a4.9,4.9,0,0,1-1.67-1.55l1-3.82a2,2,0,0,0-1.09-2.33,20.36,20.36,0,0,1-3.17-1.84,2,2,0,0,0-2.56.22l-2.81,2.81a5.11,5.11,0,0,1-2.17-.67,5,5,0,0,1-.67-2.17l2.81-2.8a2,2,0,0,0,.22-2.57,21.05,21.05,0,0,1-1.84-3.17A2,2,0,0,0,75.76,105l-3.82,1a5.08,5.08,0,0,1-1.55-1.66,5,5,0,0,1,.51-2.22l3.83-1A2,2,0,0,0,76.21,99a20.45,20.45,0,0,1,0-3.67,2,2,0,0,0-1.48-2.1l-3.83-1A5,5,0,0,1,70.39,90a4.9,4.9,0,0,1,1.55-1.67l3.82,1a2,2,0,0,0,2.33-1.09,22.09,22.09,0,0,1,1.84-3.17,2,2,0,0,0-.22-2.56L76.9,79.74a5.11,5.11,0,0,1,.67-2.17,5,5,0,0,1,2.17-.67l2.81,2.81a2,2,0,0,0,2.56.22,22.09,22.09,0,0,1,3.17-1.84,2,2,0,0,0,1.09-2.33l-1-3.82A5,5,0,0,1,90,70.39a5,5,0,0,1,2.21.51l1,3.83a2,2,0,0,0,2.1,1.48,20.45,20.45,0,0,1,3.67,0,2,2,0,0,0,2.11-1.48l1-3.83a5.11,5.11,0,0,1,2.22-.51A5,5,0,0,1,106,71.94l-1,3.82a2,2,0,0,0,1.09,2.33,21.56,21.56,0,0,1,3.17,1.84,2,2,0,0,0,2.57-.22l2.8-2.81a5,5,0,0,1,2.17.67,4.86,4.86,0,0,1,.67,2.17l-2.81,2.81a2,2,0,0,0-.22,2.56,21.19,21.19,0,0,1,1.84,3.17,2,2,0,0,0,2.33,1.09l3.82-1A4.9,4.9,0,0,1,124,90a4.83,4.83,0,0,1-.51,2.21l-3.83,1a2,2,0,0,0-1.47,2.1,22.49,22.49,0,0,1,0,3.67,2,2,0,0,0,1.47,2.11l3.83,1A4.94,4.94,0,0,1,124,104.37Z"></path><path d="M69.71,74.69a2,2,0,0,0-.26-.76l-.91-1.59a35.88,35.88,0,0,0,3.8-3.8l1.59.91a2,2,0,0,0,.76.26c3.63.43,8.24.44,9.62-1.94s-1-6.37-3.14-9.3a2,2,0,0,0-.6-.53L79,57a35,35,0,0,0,1.39-5.2h1.83a2.14,2.14,0,0,0,.79-.16c3.36-1.44,7.36-3.74,7.36-6.49s-4-5-7.36-6.48a2,2,0,0,0-.79-.16H80.38A34.8,34.8,0,0,0,79,33.33l1.58-.91a1.91,1.91,0,0,0,.6-.53c2.19-2.93,4.51-6.92,3.14-9.3s-6-2.37-9.62-1.93a2,2,0,0,0-.76.25l-1.59.92A35.14,35.14,0,0,0,68.53,18l.92-1.59a2,2,0,0,0,.26-.76c.43-3.63.44-8.24-1.94-9.62s-6.37,1-9.3,3.14a2,2,0,0,0-.53.6L57,11.37A35,35,0,0,0,51.83,10V8.15a2.14,2.14,0,0,0-.16-.79C50.23,4,47.93,0,45.18,0s-5,4-6.48,7.36a2,2,0,0,0-.17.79V10a35,35,0,0,0-5.2,1.39l-.91-1.58a1.91,1.91,0,0,0-.53-.6C29,7,25,4.68,22.59,6.05s-2.37,6-1.93,9.62a1.85,1.85,0,0,0,.25.76L21.83,18A36.07,36.07,0,0,0,18,21.83l-1.59-.92a2,2,0,0,0-.76-.25c-3.63-.44-8.24-.45-9.62,1.93S7,29,9.19,31.89a1.91,1.91,0,0,0,.6.53l1.58.91A34.8,34.8,0,0,0,10,38.54H8.15a2,2,0,0,0-.79.16C4,40.14,0,42.43,0,45.18s4,5,7.36,6.49a2.14,2.14,0,0,0,.79.16H10A35,35,0,0,0,11.37,57l-1.58.91a2,2,0,0,0-.6.53C7,61.4,4.68,65.39,6.05,67.77s6,2.37,9.62,1.94a2,2,0,0,0,.76-.26L18,68.54a36,36,0,0,0,3.81,3.8l-.92,1.59a1.85,1.85,0,0,0-.25.76c-.44,3.63-.45,8.24,1.93,9.62s6.37-1,9.3-3.14a1.91,1.91,0,0,0,.53-.6L33.33,79a35,35,0,0,0,5.2,1.39v1.83a2,2,0,0,0,.17.79c1.44,3.36,3.73,7.36,6.48,7.36s5-4,6.49-7.36a2.14,2.14,0,0,0,.16-.79V80.38A34.36,34.36,0,0,0,57,79l.91,1.58a2,2,0,0,0,.53.6c2.93,2.19,6.92,4.51,9.3,3.14S70.14,78.32,69.71,74.69Zm-5-4.4a2,2,0,0,0-.5,2.58l1.56,2.69a18.23,18.23,0,0,1-.1,5.12,18,18,0,0,1-4.49-2.47l-1.55-2.69a2,2,0,0,0-2.48-.85,31.56,31.56,0,0,1-7.61,2,2,2,0,0,0-1.72,2v3.11a17.91,17.91,0,0,1-2.65,4.38,18.56,18.56,0,0,1-2.65-4.38V78.68a2,2,0,0,0-1.72-2,31.56,31.56,0,0,1-7.61-2,2,2,0,0,0-2.48.85l-1.55,2.69a18.12,18.12,0,0,1-4.48,2.47,17.78,17.78,0,0,1-.11-5.12l1.56-2.69a2,2,0,0,0-.5-2.58,31.92,31.92,0,0,1-5.57-5.57,2,2,0,0,0-2.58-.5L14.8,65.78a17.79,17.79,0,0,1-5.12-.11,18.12,18.12,0,0,1,2.47-4.48l2.69-1.55a2,2,0,0,0,.85-2.48,31.69,31.69,0,0,1-2-7.61,2,2,0,0,0-2-1.72H8.57a17.91,17.91,0,0,1-4.38-2.65,18.26,18.26,0,0,1,4.38-2.64h3.11a2,2,0,0,0,2-1.73,31.81,31.81,0,0,1,2-7.61,2,2,0,0,0-.85-2.48l-2.69-1.55a18.12,18.12,0,0,1-2.47-4.48,17.79,17.79,0,0,1,5.12-.11l2.69,1.56a2,2,0,0,0,2.58-.5,31.92,31.92,0,0,1,5.57-5.57,2,2,0,0,0,.5-2.58L24.58,14.8a17.79,17.79,0,0,1,.11-5.12,18.12,18.12,0,0,1,4.48,2.47l1.55,2.69a2,2,0,0,0,2.48.85,31.81,31.81,0,0,1,7.61-2,2,2,0,0,0,1.72-2V8.57a18.56,18.56,0,0,1,2.65-4.38,17.91,17.91,0,0,1,2.65,4.38v3.11a2,2,0,0,0,1.72,2,31.69,31.69,0,0,1,7.61,2,2,2,0,0,0,2.48-.85l1.55-2.69a18,18,0,0,1,4.49-2.47,18.24,18.24,0,0,1,.1,5.12l-1.56,2.69a2,2,0,0,0,.5,2.58,31.58,31.58,0,0,1,5.57,5.57,2,2,0,0,0,2.58.5l2.69-1.56a17.78,17.78,0,0,1,5.12.11,18.12,18.12,0,0,1-2.47,4.48l-2.69,1.55a2,2,0,0,0-.85,2.48,31.81,31.81,0,0,1,2,7.61,2,2,0,0,0,2,1.73h3.11a17.63,17.63,0,0,1,4.38,2.64,17.91,17.91,0,0,1-4.38,2.65H78.68a2,2,0,0,0-2,1.72,31.69,31.69,0,0,1-2,7.61,2,2,0,0,0,.85,2.48l2.69,1.55a18.12,18.12,0,0,1,2.47,4.48,17.78,17.78,0,0,1-5.12.11l-2.69-1.56a2,2,0,0,0-2.58.5A31.92,31.92,0,0,1,64.72,70.29Z"></path><path d="M72,54a2,2,0,0,0-2-2H68V36h2a2,2,0,0,0,0-4H62a2,2,0,0,0,0,4h2V52H62a2,2,0,0,0,0,4h8A2,2,0,0,0,72,54Z"></path><path d="M29.83,33.13A2,2,0,0,0,28,31.87h0a2,2,0,0,0-1.85,1.26l-8,20.17a2,2,0,0,0,1.12,2.6A1.94,1.94,0,0,0,20,56a2,2,0,0,0,1.86-1.26l2.24-5.67h7.79l2.25,5.67a2,2,0,0,0,3.72-1.48Zm-4.15,12L28,39.29l2.31,5.82Z"></path><path d="M49,32H44a2,2,0,0,0-2,2V54a2,2,0,0,0,4,0V49h3c5,0,9-3.73,9-8.5S54.05,32,49,32Zm0,13H46V36h3a4.72,4.72,0,0,1,5,4.5A4.72,4.72,0,0,1,49,45Z"></path></svg>