<svg height='100px' width='100px'  fill="#000000" xmlns="http://www.w3.org/2000/svg" xmlns:xlink="http://www.w3.org/1999/xlink" version="1.1" x="0px" y="0px" viewBox="0 0 64 64" enable-background="new 0 0 64 64" xml:space="preserve"><g><path d="M39.841,34.75H58c0.414,0,0.75-0.336,0.75-0.75V22c0-0.414-0.336-0.75-0.75-0.75h-1.613V18c0-0.414-0.336-0.75-0.75-0.75   h-4.728c-0.414,0-0.75,0.336-0.75,0.75v3.25H48.11V18c0-0.414-0.336-0.75-0.75-0.75h-2.61V10c0-0.414-0.336-0.75-0.75-0.75h-1.613   V6c0-0.414-0.336-0.75-0.75-0.75h-4.728c-0.414,0-0.75,0.336-0.75,0.75v3.25h-2.046V6c0-0.414-0.336-0.75-0.75-0.75h-4.727   c-0.414,0-0.75,0.336-0.75,0.75v3.25h-2.046V6c0-0.414-0.336-0.75-0.75-0.75h-4.728c-0.414,0-0.75,0.336-0.75,0.75v3.25H18   c-0.414,0-0.75,0.336-0.75,0.75v12c0,0.414,0.336,0.75,0.75,0.75h13.25v10.5h-2.046V30c0-0.414-0.336-0.75-0.75-0.75h-4.727   c-0.414,0-0.75,0.336-0.75,0.75v3.25h-2.046V30c0-0.414-0.336-0.75-0.75-0.75h-4.728c-0.414,0-0.75,0.336-0.75,0.75v3.25h-1.613   c-0.414,0-0.75,0.336-0.75,0.75v7.25H8.363c-0.414,0-0.75,0.336-0.75,0.75v3.25H6c-0.414,0-0.75,0.336-0.75,0.75v12   c0,0.414,0.336,0.75,0.75,0.75h26h26c0.414,0,0.75-0.336,0.75-0.75V46c0-0.414-0.336-0.75-0.75-0.75h-1.613V42   c0-0.414-0.336-0.75-0.75-0.75h-4.728c-0.414,0-0.75,0.336-0.75,0.75v3.25h-2.046V42c0-0.414-0.336-0.75-0.75-0.75h-4.727   c-0.414,0-0.75,0.336-0.75,0.75v3.25h-2.046V34.75z M51.659,18.75h3.228v2.5h-3.228V18.75z M46.61,18.75v2.5h-1.86v-2.5H46.61z    M37.659,6.75h3.228v2.5h-3.228V6.75z M29.387,6.75h3.227v2.5h-3.227V6.75z M21.113,6.75h3.228v2.5h-3.228V6.75z M18.75,10.75h24.5   v10.5h-24.5V10.75z M32.75,22.75h24.5v10.5h-24.5V22.75z M24.478,30.75h3.227v2.5h-3.227V30.75z M16.204,30.75h3.228v2.5h-3.228   V30.75z M13.841,34.75h24.5v10.5h-24.5V34.75z M9.113,42.75h3.228v2.5H9.113V42.75z M6.75,46.75h24.5v10.5H6.75V46.75z    M57.25,57.25h-24.5v-10.5h24.5V57.25z M51.659,42.75h3.228v2.5h-3.228V42.75z M43.387,42.75h3.227v2.5h-3.227V42.75z"></path></g></svg>