<svg height='100px' width='100px'  fill="#000000" xmlns="http://www.w3.org/2000/svg" viewBox="0 0 128 128" data-name="Layer 2" x="0px" y="0px"><path d="m81.285 19.766a1.75 1.75 0 0 0 0 3.5 19.476 19.476 0 0 1 19.454 19.453 1.75 1.75 0 1 0 3.5 0 22.98 22.98 0 0 0 -22.954-22.953z"></path><path d="m114.073 36.255a33.409 33.409 0 0 0 -53.636-19.648 22.853 22.853 0 0 0 -37.4 17.645v.159h-.16a22.875 22.875 0 0 0 0 45.75h27.873v11.039l-9.036 9.036a8.089 8.089 0 1 0 2.474 2.475l9.549-9.549a1.75 1.75 0 0 0 .513-1.237v-11.765h8v22.614a8.062 8.062 0 1 0 3.5 0v-22.614h8v11.766a1.75 1.75 0 0 0 .513 1.237l9.549 9.549a8.088 8.088 0 1 0 2.474-2.475l-9.036-9.037v-11.04h27.875a22.862 22.862 0 0 0 8.948-43.905zm-76.681 75.34a4.563 4.563 0 1 1 4.563-4.562 4.568 4.568 0 0 1 -4.562 4.562zm31.17-.955a4.562 4.562 0 1 1 -4.562-4.563 4.568 4.568 0 0 1 4.562 4.563zm26.607-3.607a4.563 4.563 0 1 1 -4.562-4.562 4.568 4.568 0 0 1 4.563 4.561zm9.955-30.372h-82.249a19.375 19.375 0 0 1 0-38.75c.572 0 1.177.03 1.847.094a1.75 1.75 0 0 0 1.906-1.909c-.063-.657-.094-1.26-.094-1.843a19.354 19.354 0 0 1 32.671-14.066 1.752 1.752 0 0 0 2.356.044 29.908 29.908 0 0 1 49.239 17.569 1.751 1.751 0 0 0 1.112 1.354 19.363 19.363 0 0 1 -6.784 37.5z"></path><path d="m106.875 85.553a8.063 8.063 0 1 0 8.062 8.063 8.072 8.072 0 0 0 -8.062-8.063zm0 12.625a4.563 4.563 0 1 1 4.562-4.562 4.568 4.568 0 0 1 -4.562 4.562z"></path><path d="m21.125 85.553a8.063 8.063 0 1 0 8.062 8.063 8.072 8.072 0 0 0 -8.062-8.063zm0 12.625a4.563 4.563 0 1 1 4.562-4.562 4.568 4.568 0 0 1 -4.562 4.562z"></path></svg>