<svg height='100px' width='100px'  fill="#000000" xmlns="http://www.w3.org/2000/svg" viewBox="0 0 48 48" x="0px" y="0px"><title>Coding Backend</title><g data-name="Coding Backend"><path d="M45,8H15a3,3,0,0,0-3,3V45a3,3,0,0,0,3,3H45a3,3,0,0,0,3-3V11A3,3,0,0,0,45,8ZM25,11a1,1,0,0,1,0,2A1,1,0,0,1,25,11Zm-4,0a1,1,0,0,1,0,2A1,1,0,0,1,21,11Zm-4,0a1,1,0,0,1,0,2A1,1,0,0,1,17,11ZM46,45a1,1,0,0,1-1,1H15a1,1,0,0,1-1-1V16H46Z"></path><path d="M33,0H3A3,3,0,0,0,0,3V37a3,3,0,0,0,3,3h7V38H3a1,1,0,0,1-1-1V10h8.1A4.92,4.92,0,0,1,11,8H2V3A1,1,0,0,1,3,2H33a1,1,0,0,1,1,1V6h2V3A3,3,0,0,0,33,0Z"></path><path d="M6,5A1,1,0,0,1,4,5,1,1,0,0,1,6,5Z"></path><path d="M10,5A1,1,0,0,1,8,5,1,1,0,0,1,10,5Z"></path><path d="M14,5a1,1,0,0,1-2,0A1,1,0,0,1,14,5Z"></path><path d="M18,19a1,1,0,0,1-2,0A1,1,0,0,1,18,19Z"></path><path d="M25,20H21a1,1,0,0,1,0-2h4A1,1,0,0,1,25,20Z"></path><path d="M40,24H36a1,1,0,0,1,0-2h4A1,1,0,0,1,40,24Z"></path><path d="M18,23a1,1,0,0,1-2,0A1,1,0,0,1,18,23Z"></path><path d="M32,24H21a1,1,0,0,1,0-2H32A1,1,0,0,1,32,24Z"></path><path d="M35,32H25a1,1,0,0,1,0-2H35A1,1,0,0,1,35,32Z"></path><path d="M22,27a1,1,0,0,1-2,0A1,1,0,0,1,22,27Z"></path><path d="M37,28H25a1,1,0,0,1,0-2H37A1,1,0,0,1,37,28Z"></path><path d="M22,31a1,1,0,0,1-2,0A1,1,0,0,1,22,31Z"></path><path d="M9,15H5a1,1,0,0,1,0-2H9A1,1,0,0,1,9,15Z"></path><path d="M9,19H5a1,1,0,0,1,0-2H9A1,1,0,0,1,9,19Z"></path><path d="M9,23H5a1,1,0,0,1,0-2H9A1,1,0,0,1,9,23Z"></path><path d="M9,27H5a1,1,0,0,1,0-2H9A1,1,0,0,1,9,27Z"></path><path d="M9,31H5a1,1,0,0,1,0-2H9A1,1,0,0,1,9,31Z"></path><path d="M9,35H5a1,1,0,0,1,0-2H9A1,1,0,0,1,9,35Z"></path><path d="M28.05,41.68l2-6a1,1,0,0,1,1.9.64l-2,6A1,1,0,0,1,28.05,41.68Z"></path><path d="M34,42a1,1,0,0,1-.71-1.71L34.59,39l-1.3-1.29a1,1,0,0,1,1.42-1.42l2,2a1,1,0,0,1,0,1.42C34.53,41.89,34.54,42,34,42Z"></path><path d="M26,42c-.54,0-.57-.15-2.71-2.29a1,1,0,0,1,0-1.42l2-2a1,1,0,0,1,1.42,1.42L25.41,39l1.3,1.29A1,1,0,0,1,26,42Z"></path></g></svg>