<svg xmlns="http://www.w3.org/2000/svg" width="100" height="100"><defs><clipPath id="a" clipPathUnits="userSpaceOnUse"><path d="M674.286 549.505a261.429 262.857 0 1 1-522.857 0 261.429 262.857 0 1 1 522.857 0z" transform="matrix(.1836 0 0 .1826 190.372 664.377)"/></clipPath></defs><path d="M43.877 1012.23c-.828 0-1.61.143-2.314.44-.703.28-1.3.75-1.816 1.406-.516.656-.934 1.502-1.23 2.549-.282 1.047-.41 2.322-.41 3.838 0 2.969.507 5.17 1.523 6.592 1.015 1.422 2.459 2.139 4.365 2.139.765 0 1.443-.12 2.02-.323.595-.203 1.077-.422 1.436-.703l-.586-1.67c-.374.25-.765.46-1.171.616-.39.156-.912.234-1.553.234-1.344 0-2.306-.6-2.9-1.787-.594-1.188-.879-2.895-.879-5.098 0-2.188.258-3.803.82-4.834.563-1.047 1.475-1.553 2.725-1.553.562 0 1.072.078 1.494.234.437.157.826.366 1.2.616l.645-1.758c-.375-.266-.87-.502-1.464-.674-.594-.188-1.217-.264-1.905-.264zm9.756 0c-.641 0-1.225.09-1.787.293a4.334 4.334 0 0 0-1.436.88 4.17 4.17 0 0 0-.937 1.347c-.219.531-.323 1.13-.323 1.787 0 .672.09 1.258.293 1.758.204.5.479.943.791 1.318a6.15 6.15 0 0 0 1.055.967c.39.281.783.541 1.142.791.313.219.612.455.909.674.296.219.542.467.761.732.235.266.445.551.586.88.14.328.205.69.205 1.113 0 .797-.234 1.435-.703 1.904-.453.469-1.119.703-1.963.703-.562 0-1.056-.064-1.494-.205a6.963 6.963 0 0 1-1.23-.615l-.674 1.7c.438.28.961.501 1.524.673.562.172 1.212.264 1.962.264.813 0 1.516-.117 2.11-.352.609-.25 1.103-.59 1.493-.996.407-.422.692-.889.88-1.436a5.46 5.46 0 0 0 .292-1.758c0-.671-.09-1.244-.293-1.728-.187-.5-.449-.93-.761-1.29a5.303 5.303 0 0 0-.996-.966 21.306 21.306 0 0 0-1.114-.791c-.359-.234-.697-.455-1.025-.674a5.508 5.508 0 0 1-.85-.732 3.75 3.75 0 0 1-.585-.88c-.14-.327-.205-.704-.205-1.142 0-.797.22-1.41.673-1.816.47-.422 1.08-.645 1.846-.645.422 0 .826.08 1.201.205.39.11.756.28 1.084.498l.644-1.67c-.359-.219-.787-.4-1.318-.557a6.297 6.297 0 0 0-1.757-.234zm9.403 0c-.64 0-1.254.09-1.816.293a4.334 4.334 0 0 0-1.436.88 4.17 4.17 0 0 0-.937 1.347c-.219.531-.322 1.13-.322 1.787 0 .672.119 1.258.322 1.758s.45.943.762 1.318c.328.375.693.686 1.083.967.391.281.754.541 1.114.791.312.219.61.455.908.674.297.219.572.467.79.732.235.266.417.551.557.88.141.328.205.69.205 1.113 0 .797-.234 1.435-.703 1.904-.453.469-1.09.703-1.933.703-.563 0-1.057-.064-1.494-.205a7.21 7.21 0 0 1-1.26-.615l-.644 1.7c.437.28.931.501 1.494.673.562.172 1.213.264 1.962.264.813 0 1.516-.117 2.11-.352.609-.25 1.103-.59 1.494-.996.406-.422.72-.889.908-1.436.187-.547.263-1.148.264-1.758 0-.671-.09-1.244-.293-1.728-.188-.5-.45-.93-.762-1.29a5.303 5.303 0 0 0-.996-.966 21.306 21.306 0 0 0-1.113-.791c-.36-.234-.698-.455-1.026-.674a5.508 5.508 0 0 1-.85-.732 3.75 3.75 0 0 1-.585-.88c-.14-.327-.205-.704-.205-1.142 0-.797.22-1.41.674-1.816.468-.422 1.109-.645 1.875-.645.421 0 .796.08 1.171.205.39.11.756.28 1.084.498l.674-1.67c-.36-.219-.816-.4-1.348-.557a6.088 6.088 0 0 0-1.728-.234zm-28.123 14.122c-.422 0-.775.129-1.025.41-.25.281-.352.621-.352.996 0 .36.102.686.352.967.25.281.603.41 1.025.41.422 0 .746-.129.996-.41.266-.281.41-.608.41-.967 0-.375-.144-.715-.41-.996-.25-.281-.574-.41-.996-.41z" transform="translate(0 -952.362)"/><text xml:space="preserve" x="181.199" y="1004.358" font-family="Sans" font-size="37.499" style="letter-spacing:0;word-spacing:0" transform="matrix(.99994 0 0 1.00006 0 -952.362)"/><path d="M49.998 957.362C25.154 957.348 5 977.524 5 1002.362c0 24.839 20.154 45 44.998 45 24.844 0 44.981-20.161 45.002-45 0-.51-.021-.961-.037-1.448-.754-23.586-19.666-42.563-43.216-43.508a44.61 44.61 0 0 0-1.749-.044zm0 1.87c.54 0 1.073.02 1.608.04.827.174 1.393.834 1.391 1.577a.938.938 0 1 0 1.873.003c.001-.49-.106-.955-.296-1.375 20.218 2.132 36.267 18.218 38.324 38.467a3.3 3.3 0 0 0-1.397-.306.938.938 0 1 0 .004 1.873c.746-.002 1.407.568 1.578 1.4.016.483.037.965.037 1.451 0 23.834-19.3 43.129-43.122 43.129S6.88 1026.196 6.88 1002.362c0-23.833 19.296-43.13 43.118-43.13z" overflow="visible" style="color:#000;text-indent:0;text-decoration-line:none;text-transform:none;direction:ltr;block-progression:tb;baseline-shift:baseline;enable-background:accumulate" transform="translate(0 -952.362)"/><path d="M272.188 707.313c-3.976 0-7.22 3.243-7.22 7.218v44.157c0 3.975 3.244 7.218 7.22 7.218h46.687c3.975 0 7.219-3.243 7.219-7.218V714.53c0-3.975-3.244-7.218-7.219-7.218h-46.688zm0 2.375h46.687c2.695 0 4.813 2.148 4.813 4.843v44.157c0 2.695-2.118 4.843-4.813 4.843h-46.688c-2.695 0-4.812-2.148-4.812-4.843V714.53c0-2.695 2.117-4.843 4.813-4.843z" clip-path="url(#a)" overflow="visible" style="color:#000;text-indent:0;text-decoration-line:none;text-transform:none;direction:ltr;block-progression:tb;baseline-shift:baseline;enable-background:accumulate" transform="matrix(.78621 0 0 .78593 -155.325 -554.802)"/></svg>
