<svg height='100px' width='100px'  fill="#000000" xmlns:x="http://ns.adobe.com/Extensibility/1.0/" xmlns:i="http://ns.adobe.com/AdobeIllustrator/10.0/" xmlns:graph="http://ns.adobe.com/Graphs/1.0/" xmlns="http://www.w3.org/2000/svg" xmlns:xlink="http://www.w3.org/1999/xlink" version="1.1" x="0px" y="0px" viewBox="0 0 100 100" style="enable-background:new 0 0 100 100;" xml:space="preserve"><g><g i:extraneous="self"><g><path d="M5273.1,2400.1v-2c0-2.8-5-4-9.7-4s-9.7,1.3-9.7,4v2c0,1.8,0.7,3.6,2,4.9l5,4.9c0.3,0.3,0.4,0.6,0.4,1v6.4     c0,0.4,0.2,0.7,0.6,0.8l2.9,0.9c0.5,0.1,1-0.2,1-0.8v-7.2c0-0.4,0.2-0.7,0.4-1l5.1-5C5272.4,2403.7,5273.1,2401.9,5273.1,2400.1z      M5263.4,2400c-4.8,0-7.4-1.3-7.5-1.8v0c0.1-0.5,2.7-1.8,7.5-1.8c4.8,0,7.3,1.3,7.5,1.8C5270.7,2398.7,5268.2,2400,5263.4,2400z"></path><path d="M5268.4,2410.3c-0.6,0-1,0.4-1,1c0,0.6,0.4,1,1,1h4.3c0.6,0,1-0.4,1-1c0-0.6-0.4-1-1-1H5268.4z"></path><path d="M5272.7,2413.7h-4.3c-0.6,0-1,0.4-1,1c0,0.6,0.4,1,1,1h4.3c0.6,0,1-0.4,1-1C5273.7,2414.1,5273.3,2413.7,5272.7,2413.7z"></path><path d="M5272.7,2417h-4.3c-0.6,0-1,0.4-1,1c0,0.6,0.4,1,1,1h4.3c0.6,0,1-0.4,1-1C5273.7,2417.5,5273.3,2417,5272.7,2417z"></path></g><g><path d="M75.8,75.9c0,0.2-0.2,0.4-0.4,0.4H10.7c-0.2,0-0.5-0.2-0.5-0.4V33.5h57.4l14.9-14.9c-1.1-1.6-2.9-2.7-5-2.7H8.5     c-3.3,0-6,2.7-6,6v56.2c0,3.3,2.7,6,6,6h69.1c3.3,0,6-2.7,6-6V52.9l-7.8,7.8V75.9z M28.1,22.1c1.4,0,2.6,1.1,2.6,2.6     c0,1.4-1.2,2.6-2.6,2.6c-1.4,0-2.6-1.1-2.6-2.6C25.5,23.2,26.7,22.1,28.1,22.1z M20.3,22.1c1.4,0,2.6,1.1,2.6,2.6     c0,1.4-1.2,2.6-2.6,2.6c-1.4,0-2.6-1.1-2.6-2.6C17.7,23.2,18.8,22.1,20.3,22.1z M12.4,22.1c1.4,0,2.6,1.1,2.6,2.6     c0,1.4-1.2,2.6-2.6,2.6s-2.6-1.1-2.6-2.6C9.8,23.2,11,22.1,12.4,22.1z"></path><path d="M44.4,57.8c0.5,0,0.9-0.4,0.9-0.9V53c0-0.5-0.4-0.9-0.9-0.9h-2c-0.2-0.9-0.6-1.7-1-2.4l1.4-1.4c0.4-0.3,0.4-0.9,0-1.3     L40,44.3c-0.3-0.4-0.9-0.4-1.3,0l-1.4,1.4c-0.8-0.4-1.6-0.8-2.4-1v-2c0-0.5-0.4-0.9-0.9-0.9h-3.9c-0.5,0-0.9,0.4-0.9,0.9v2     c-0.9,0.2-1.7,0.6-2.4,1l-1.4-1.4c-0.3-0.4-0.9-0.4-1.3,0L21.4,47c-0.4,0.3-0.4,0.9,0,1.3l1.4,1.4c-0.4,0.8-0.8,1.6-1,2.4h-2     c-0.5,0-0.9,0.4-0.9,0.9v3.9c0,0.5,0.4,0.9,0.9,0.9h2c0.2,0.9,0.6,1.7,1,2.4l-1.4,1.4c-0.4,0.3-0.4,0.9,0,1.3l2.7,2.7     c0.3,0.4,0.9,0.4,1.3,0l1.4-1.4c0.8,0.4,1.6,0.8,2.4,1v2c0,0.5,0.4,0.9,0.9,0.9H34c0.5,0,0.9-0.4,0.9-0.9v-2     c0.9-0.2,1.7-0.6,2.4-1l1.4,1.4c0.3,0.4,0.9,0.4,1.3,0l2.7-2.7c0.4-0.3,0.4-0.9,0-1.3l-1.4-1.4c0.4-0.8,0.8-1.6,1-2.4H44.4z      M32.1,60c-2.8,0-5-2.2-5-5c0-2.8,2.2-5,5-5c2.8,0,5,2.2,5,5C37.1,57.7,34.9,60,32.1,60z"></path><rect x="60.7" y="37.6" transform="matrix(0.7071 -0.7071 0.7071 0.7071 -9.0603 65.8415)" width="28.4" height="12.5"></rect><path d="M52.3,64.2c-0.3,1.3,0.9,2.6,2.2,2.2l8-1.8c0.3-0.1,0.7-0.3,0.9-0.5l2.1-2.1l-8.8-8.8l-2.1,2.1c-0.2,0.3-0.4,0.6-0.5,0.9     L52.3,64.2z"></path><path d="M97,28.1l-6.2-6.2c-0.7-0.7-1.9-0.7-2.7,0l-3.8,3.8l8.8,8.8l3.8-3.8C97.7,30,97.7,28.8,97,28.1z"></path></g></g></g></svg>