<svg xmlns="http://www.w3.org/2000/svg" xml:space="preserve" width="100" height="100"><path d="M3.75 76.25h32.5v10h-7.5v10h42.5v-10h-7.5v-10h32.5V3.75H3.75v72.5zm35 0h2.5v10h-2.5v-10zm17.5 10h-12.5v-10h12.5v10zm12.5 2.5v5h-37.5v-5h37.5zm-7.5-2.5h-2.5v-10h2.5v10zm-55-80h87.5v67.5H6.25V6.25z"/><path d="M73.75 71.25v-5h7.73c.518 1.452 1.893 2.5 3.52 2.5 2.067 0 3.75-1.682 3.75-3.75s-1.683-3.75-3.75-3.75c-1.627 0-3.002 1.048-3.52 2.5h-7.73v-7.5h2.73c.518 1.452 1.893 2.5 3.52 2.5 2.067 0 3.75-1.682 3.75-3.75s-1.683-3.75-3.75-3.75c-1.627 0-3.002 1.048-3.52 2.5h-2.73v-7.5h7.73c.518 1.452 1.893 2.5 3.52 2.5 2.067 0 3.75-1.682 3.75-3.75s-1.683-3.75-3.75-3.75c-1.627 0-3.002 1.048-3.52 2.5h-7.73v-7.5h2.73c.518 1.452 1.893 2.5 3.52 2.5 2.067 0 3.75-1.682 3.75-3.75s-1.683-3.75-3.75-3.75c-1.627 0-3.002 1.048-3.52 2.5h-2.73v-7.5h7.73c.518 1.452 1.893 2.5 3.52 2.5 2.067 0 3.75-1.682 3.75-3.75s-1.683-3.75-3.75-3.75c-1.627 0-3.002 1.048-3.52 2.5h-7.73v-7.5h2.73c.518 1.452 1.893 2.5 3.52 2.5 2.067 0 3.75-1.682 3.75-3.75s-1.683-3.75-3.75-3.75c-1.627 0-3.002 1.048-3.52 2.5h-2.73v-5h-47.5v5h-2.73c-.518-1.452-1.893-2.5-3.52-2.5-2.067 0-3.75 1.682-3.75 3.75s1.683 3.75 3.75 3.75c1.627 0 3.002-1.048 3.52-2.5h2.73v7.5h-7.73c-.518-1.452-1.893-2.5-3.52-2.5-2.067 0-3.75 1.682-3.75 3.75s1.683 3.75 3.75 3.75c1.627 0 3.002-1.048 3.52-2.5h7.73v7.5h-2.73c-.518-1.452-1.893-2.5-3.52-2.5-2.067 0-3.75 1.682-3.75 3.75s1.683 3.75 3.75 3.75c1.627 0 3.002-1.048 3.52-2.5h2.73v7.5h-7.73c-.518-1.452-1.893-2.5-3.52-2.5-2.067 0-3.75 1.682-3.75 3.75s1.683 3.75 3.75 3.75c1.627 0 3.002-1.048 3.52-2.5h7.73v7.5h-2.73c-.518-1.452-1.893-2.5-3.52-2.5-2.067 0-3.75 1.682-3.75 3.75s1.683 3.75 3.75 3.75c1.627 0 3.002-1.048 3.52-2.5h2.73v7.5h-7.73c-.518-1.452-1.893-2.5-3.52-2.5-2.067 0-3.75 1.682-3.75 3.75s1.683 3.75 3.75 3.75c1.627 0 3.002-1.048 3.52-2.5h7.73v5h47.5zm-45-60h42.5v51.048L57.452 20.904 47.222 54.15l-7.276-14.552L28.75 64.23V11.25zm.69 57.5 10.614-23.348 7.723 15.448 9.77-31.754L70.767 68.75H29.44zm55.56-5a1.251 1.251 0 0 1 0 2.5 1.251 1.251 0 0 1 0-2.5zm-5-10a1.251 1.251 0 0 1 0 2.5 1.251 1.251 0 0 1 0-2.5zm5-10a1.251 1.251 0 0 1 0 2.5 1.251 1.251 0 0 1 0-2.5zm-5-10a1.251 1.251 0 0 1 0 2.5 1.251 1.251 0 0 1 0-2.5zm5-10a1.251 1.251 0 0 1 0 2.5 1.251 1.251 0 0 1 0-2.5zm-5-10a1.251 1.251 0 0 1 0 2.5 1.251 1.251 0 0 1 0-2.5zm-60 2.5a1.251 1.251 0 0 1 0-2.5 1.251 1.251 0 0 1 0 2.5zm-5 10a1.251 1.251 0 0 1 0-2.5 1.251 1.251 0 0 1 0 2.5zm5 10a1.251 1.251 0 0 1 0-2.5 1.251 1.251 0 0 1 0 2.5zm-5 10a1.251 1.251 0 0 1 0-2.5 1.251 1.251 0 0 1 0 2.5zm5 10a1.251 1.251 0 0 1 0-2.5 1.251 1.251 0 0 1 0 2.5zm-5 10a1.251 1.251 0 0 1 0-2.5 1.251 1.251 0 0 1 0 2.5z"/><path d="M51.25 25c0-4.825-3.925-8.75-8.75-8.75s-8.75 3.925-8.75 8.75 3.925 8.75 8.75 8.75 8.75-3.925 8.75-8.75zm-15 0c0-3.446 2.804-6.25 6.25-6.25s6.25 2.804 6.25 6.25-2.804 6.25-6.25 6.25-6.25-2.804-6.25-6.25z"/></svg>
