<svg height='100px' width='100px'  fill="#000000" xmlns="http://www.w3.org/2000/svg" viewBox="0 0 60 60" x="0px" y="0px"><title>020 - Server Network</title><path d="M57,17H37a3,3,0,0,0-3,3v4a2.981,2.981,0,0,0,.78,2,2.969,2.969,0,0,0-.757,1.775L26,20.555V19a2.981,2.981,0,0,0-.78-2A2.981,2.981,0,0,0,26,15V11a2.981,2.981,0,0,0-.78-2A2.981,2.981,0,0,0,26,7V3a3,3,0,0,0-3-3H3A3,3,0,0,0,0,3V7A2.981,2.981,0,0,0,.78,9,2.981,2.981,0,0,0,0,11v4a2.981,2.981,0,0,0,.78,2A2.981,2.981,0,0,0,0,19v4a3,3,0,0,0,3,3H23a2.994,2.994,0,0,0,2.977-2.775L33.505,30l-7.528,6.775A2.994,2.994,0,0,0,23,34H3a3,3,0,0,0-3,3v4a2.981,2.981,0,0,0,.78,2A2.981,2.981,0,0,0,0,45v4a2.981,2.981,0,0,0,.78,2A2.981,2.981,0,0,0,0,53v4a3,3,0,0,0,3,3H23a3,3,0,0,0,3-3V53a2.981,2.981,0,0,0-.78-2A2.981,2.981,0,0,0,26,49V45a2.981,2.981,0,0,0-.78-2A2.981,2.981,0,0,0,26,41V39.445l8.023-7.22A2.969,2.969,0,0,0,34.78,34,2.981,2.981,0,0,0,34,36v4a3,3,0,0,0,3,3H57a3,3,0,0,0,3-3V36a2.981,2.981,0,0,0-.78-2A2.981,2.981,0,0,0,60,32V28a2.981,2.981,0,0,0-.78-2A2.981,2.981,0,0,0,60,24V20A3,3,0,0,0,57,17ZM2,15V11a1,1,0,0,1,1-1H23a1,1,0,0,1,1,1v4a1,1,0,0,1-1,1H3A1,1,0,0,1,2,15ZM2,3A1,1,0,0,1,3,2H23a1,1,0,0,1,1,1V7a1,1,0,0,1-1,1H3A1,1,0,0,1,2,7ZM24,23a1,1,0,0,1-1,1H3a1,1,0,0,1-1-1V19a1,1,0,0,1,1-1H23a1,1,0,0,1,1,1ZM2,37a1,1,0,0,1,1-1H23a1,1,0,0,1,1,1v4a1,1,0,0,1-1,1H3a1,1,0,0,1-1-1Zm22,8v4a1,1,0,0,1-1,1H3a1,1,0,0,1-1-1V45a1,1,0,0,1,1-1H23A1,1,0,0,1,24,45Zm0,12a1,1,0,0,1-1,1H3a1,1,0,0,1-1-1V53a1,1,0,0,1,1-1H23a1,1,0,0,1,1,1ZM36,20a1,1,0,0,1,1-1H57a1,1,0,0,1,1,1v4a1,1,0,0,1-1,1H37a1,1,0,0,1-1-1Zm22,8v4a1,1,0,0,1-1,1H37a1,1,0,0,1-1-1V28a1,1,0,0,1,1-1H57A1,1,0,0,1,58,28Zm0,12a1,1,0,0,1-1,1H37a1,1,0,0,1-1-1V36a1,1,0,0,1,1-1H57a1,1,0,0,1,1,1Z"></path><path d="M6,54H5a1,1,0,0,0,0,2H6a1,1,0,0,0,0-2Z"></path><path d="M11,54H10a1,1,0,0,0,0,2h1a1,1,0,0,0,0-2Z"></path><path d="M21,54H18a1,1,0,0,0,0,2h3a1,1,0,0,0,0-2Z"></path><path d="M5,48H6a1,1,0,0,0,0-2H5a1,1,0,0,0,0,2Z"></path><path d="M10,48h1a1,1,0,0,0,0-2H10a1,1,0,0,0,0,2Z"></path><path d="M18,48h3a1,1,0,0,0,0-2H18a1,1,0,0,0,0,2Z"></path><path d="M5,40H6a1,1,0,0,0,0-2H5a1,1,0,0,0,0,2Z"></path><path d="M10,40h1a1,1,0,0,0,0-2H10a1,1,0,0,0,0,2Z"></path><path d="M18,40h3a1,1,0,0,0,0-2H18a1,1,0,0,0,0,2Z"></path><path d="M40,37H39a1,1,0,0,0,0,2h1a1,1,0,0,0,0-2Z"></path><path d="M45,37H44a1,1,0,0,0,0,2h1a1,1,0,0,0,0-2Z"></path><path d="M55,37H52a1,1,0,0,0,0,2h3a1,1,0,0,0,0-2Z"></path><path d="M39,31h1a1,1,0,0,0,0-2H39a1,1,0,0,0,0,2Z"></path><path d="M44,31h1a1,1,0,0,0,0-2H44a1,1,0,0,0,0,2Z"></path><path d="M52,31h3a1,1,0,0,0,0-2H52a1,1,0,0,0,0,2Z"></path><path d="M39,23h1a1,1,0,0,0,0-2H39a1,1,0,0,0,0,2Z"></path><path d="M44,23h1a1,1,0,0,0,0-2H44a1,1,0,0,0,0,2Z"></path><path d="M52,23h3a1,1,0,0,0,0-2H52a1,1,0,0,0,0,2Z"></path><path d="M6,20H5a1,1,0,0,0,0,2H6a1,1,0,0,0,0-2Z"></path><path d="M11,20H10a1,1,0,0,0,0,2h1a1,1,0,0,0,0-2Z"></path><path d="M21,20H18a1,1,0,0,0,0,2h3a1,1,0,0,0,0-2Z"></path><path d="M6,12H5a1,1,0,0,0,0,2H6a1,1,0,0,0,0-2Z"></path><path d="M11,12H10a1,1,0,0,0,0,2h1a1,1,0,0,0,0-2Z"></path><path d="M21,12H18a1,1,0,0,0,0,2h3a1,1,0,0,0,0-2Z"></path><path d="M5,6H6A1,1,0,0,0,6,4H5A1,1,0,0,0,5,6Z"></path><path d="M10,6h1a1,1,0,0,0,0-2H10a1,1,0,0,0,0,2Z"></path><path d="M18,6h3a1,1,0,0,0,0-2H18a1,1,0,0,0,0,2Z"></path></svg>