<svg height='100px' width='100px'  fill="#000000" xmlns="http://www.w3.org/2000/svg" viewBox="0 0 64 64" x="0px" y="0px"><g><path d="M61,2H3A1,1,0,0,0,2,3V51a1,1,0,0,0,1,1H28v2H17a1,1,0,0,0-1,1v6a1,1,0,0,0,1,1H47a1,1,0,0,0,1-1V55a1,1,0,0,0-1-1H36V52H61a1,1,0,0,0,1-1V3A1,1,0,0,0,61,2ZM46,56v4H18V56ZM30,54V52h4v2Zm30-4H4V4H60Z"></path><path d="M7,48H57a1,1,0,0,0,1-1V7a1,1,0,0,0-1-1H7A1,1,0,0,0,6,7V47A1,1,0,0,0,7,48ZM8,8H56V46H8Z"></path><path d="M32,22a5,5,0,1,0,5,5A5.006,5.006,0,0,0,32,22Zm0,8a3,3,0,1,1,3-3A3,3,0,0,1,32,30Z"></path><polygon points="12 12 16 12 16 10 10 10 10 16 12 16 12 12"></polygon><polygon points="52 42 48 42 48 44 54 44 54 38 52 38 52 42"></polygon><path d="M37.04,18.546A24.137,24.137,0,0,0,32,18a26.2,26.2,0,0,0-18.759,8.349,1,1,0,0,0,.039,1.345,30.681,30.681,0,0,0,13.054,7.558L23.586,38H10v2H24.414l4.273-4.273A21.672,21.672,0,0,0,32,36c10.589,0,18.393-7.967,18.72-8.306a1,1,0,0,0,.039-1.345,26.725,26.725,0,0,0-11.472-7.222L46.414,12H54V10H45.586Zm-21.618,8.42a25.83,25.83,0,0,1,9.822-5.892A8.959,8.959,0,0,0,25.1,32.769,30.077,30.077,0,0,1,15.422,26.966ZM32,34a7,7,0,1,1,7-7A7.008,7.008,0,0,1,32,34Zm16.58-7.033A29.961,29.961,0,0,1,38.9,32.774a8.959,8.959,0,0,0-.139-11.7A25.837,25.837,0,0,1,48.58,26.967Z"></path><rect x="47" y="14" width="6" height="2"></rect><rect x="47" y="18" width="4" height="2"></rect><rect x="10" y="42" width="4" height="2"></rect><rect x="16" y="42" width="2" height="2"></rect><rect x="20" y="42" width="6" height="2"></rect><rect x="52" y="34" width="2" height="2"></rect></g></svg>