<svg id="SvgjsSvg1058" width="539.140625" height="522" xmlns="http://www.w3.org/2000/svg" version="1.1" xmlns:xlink="http://www.w3.org/1999/xlink" xmlns:svgjs="http://svgjs.com/svgjs"><defs id="SvgjsDefs1059"><marker id="SvgjsMarker1074" markerWidth="16" markerHeight="12" refX="16" refY="6" viewBox="0 0 16 12" orient="auto" markerUnits="userSpaceOnUse" stroke-dasharray="0,0"><path id="SvgjsPath1075" d="M0,2 L14,6 L0,11 L0,2" fill="#323232" stroke="#323232" stroke-width="2"></path></marker><marker id="SvgjsMarker1078" markerWidth="16" markerHeight="12" refX="16" refY="6" viewBox="0 0 16 12" orient="auto" markerUnits="userSpaceOnUse" stroke-dasharray="0,0"><path id="SvgjsPath1079" d="M0,2 L14,6 L0,11 L0,2" fill="#009900" stroke="#009900" stroke-width="2"></path></marker><marker id="SvgjsMarker1094" markerWidth="16" markerHeight="12" refX="16" refY="6" viewBox="0 0 16 12" orient="auto" markerUnits="userSpaceOnUse" stroke-dasharray="0,0"><path id="SvgjsPath1095" d="M0,2 L14,6 L0,11 L0,2" fill="#323232" stroke="#323232" stroke-width="2"></path></marker><marker id="SvgjsMarker1114" markerWidth="16" markerHeight="12" refX="16" refY="6" viewBox="0 0 16 12" orient="auto" markerUnits="userSpaceOnUse" stroke-dasharray="0,0"><path id="SvgjsPath1115" d="M0,2 L14,6 L0,11 L0,2" fill="#323232" stroke="#323232" stroke-width="2"></path></marker><marker id="SvgjsMarker1118" markerWidth="16" markerHeight="12" refX="16" refY="6" viewBox="0 0 16 12" orient="auto" markerUnits="userSpaceOnUse" stroke-dasharray="0,0"><path id="SvgjsPath1119" d="M0,2 L14,6 L0,11 L0,2" fill="#323232" stroke="#323232" stroke-width="2"></path></marker></defs><g id="SvgjsG1060" transform="translate(172.08554886580617,140.21675240354222)"><path id="SvgjsPath1061" d="M 0 52.70000000000002L 88.10000000000002 0L 176.20000000000005 52.70000000000002L 88.10000000000002 105.40000000000003L 0 52.70000000000002Z" stroke="rgba(50,50,50,1)" stroke-width="2" fill-opacity="1" fill="#ffffcc"></path><g id="SvgjsG1062"><text id="SvgjsText1063" font-family="微软雅黑" text-anchor="middle" font-size="13px" width="157px" fill="#323232" font-weight="400" align="middle" anchor="middle" family="微软雅黑" size="13px" weight="400" font-style="" opacity="1" y="42.750000000000014" transform="rotate(0)"><tspan id="SvgjsTspan1064" dy="16" x="88.5"><tspan id="SvgjsTspan1065" style="text-decoration:;">model 在主应用 store上？</tspan></tspan></text></g></g><g id="SvgjsG1066" transform="translate(196.80376576799972,25.009374999999977)"><path id="SvgjsPath1067" d="M 0 4Q 0 0 4 0L 122 0Q 126 0 126 4L 126 43Q 126 47 122 47L 4 47Q 0 47 0 43Z" stroke="rgba(50,50,50,1)" stroke-width="2" fill-opacity="1" fill="#ffffff"></path><g id="SvgjsG1068"><text id="SvgjsText1069" font-family="微软雅黑" text-anchor="middle" font-size="13px" width="106px" fill="#323232" font-weight="400" align="middle" anchor="middle" family="微软雅黑" size="13px" weight="400" font-style="" opacity="1" y="13.55" transform="rotate(0)"><tspan id="SvgjsTspan1070" dy="16" x="63"><tspan id="SvgjsTspan1071" style="text-decoration:;">useModel(model)</tspan></tspan></text></g></g><g id="SvgjsG1072"><path id="SvgjsPath1073" d="M259.8037657679997 72.00937500000015L259.8037657679997 106.11306370177118L260.1855488658062 106.11306370177118L260.1855488658062 140.21675240354222" stroke="#323232" stroke-width="2" fill="none" marker-end="url(#SvgjsMarker1074)"></path></g><g id="SvgjsG1076"><path id="SvgjsPath1077" d="M260.1855488658062 245.6167524035422L260.1855488658062 295.6130637017711L260.41112499999974 295.6130637017711L260.41112499999974 345.609375" stroke="#009900" stroke-width="2" fill="none" marker-end="url(#SvgjsMarker1078)"></path><rect id="SvgjsRect1080" width="9" height="16" x="255.79833693290294" y="287.6130637017711" fill="#ffffff"></rect><text id="SvgjsText1081" font-family="微软雅黑" text-anchor="middle" font-size="13px" width="9px" fill="#000000" font-weight="700" align="top" anchor="middle" family="微软雅黑" size="13px" weight="700" font-style="" opacity="1" y="285.66306370177114" transform="rotate(0)"><tspan id="SvgjsTspan1082" dy="16" x="260.29833693290294"><tspan id="SvgjsTspan1083" style="text-decoration:;">Y</tspan></tspan></text></g><g id="SvgjsG1084" transform="translate(198.92438579999958,351.409375)"><path id="SvgjsPath1085" d="M 0 4Q 0 0 4 0L 119.37728000000021 0Q 123.37728000000021 0 123.37728000000021 4L 123.37728000000021 46.19999999999999Q 123.37728000000021 50.19999999999999 119.37728000000021 50.19999999999999L 4 50.19999999999999Q 0 50.19999999999999 0 46.19999999999999Z" stroke="rgba(50,50,50,1)" stroke-width="2" fill-opacity="1" fill="#ffffff"></path><g id="SvgjsG1086"><text id="SvgjsText1087" font-family="微软雅黑" text-anchor="middle" font-size="13px" width="104px" fill="#323232" font-weight="400" align="middle" anchor="middle" family="微软雅黑" size="13px" weight="400" font-style="" opacity="1" y="7.149999999999994" transform="rotate(0)"><tspan id="SvgjsTspan1088" dy="16" x="62"><tspan id="SvgjsTspan1089" style="text-decoration:;">获取主应用store </tspan></tspan><tspan id="SvgjsTspan1090" dy="16" x="62"><tspan id="SvgjsTspan1091" style="text-decoration:;">状态</tspan></tspan></text></g></g><g id="SvgjsG1092"><path id="SvgjsPath1093" d="M260.6130257999997 401.609375L260.6130257999997 425.209375L260.6130257999997 425.209375L260.6130257999997 448.80937500000005" stroke="#323232" stroke-width="2" fill="none" marker-end="url(#SvgjsMarker1094)"></path></g><g id="SvgjsG1096" transform="translate(25.01302579999978,453.0093749999995)"><path id="SvgjsPath1097" d="M 0 4Q 0 0 4 0L 470.49009920000026 0Q 474.49009920000026 0 474.49009920000026 4L 474.49009920000026 39.799999999999955Q 474.49009920000026 43.799999999999955 470.49009920000026 43.799999999999955L 4 43.799999999999955Q 0 43.799999999999955 0 39.799999999999955Z" stroke="rgba(50,50,50,1)" stroke-width="2" fill-opacity="1" fill="#ffffff"></path><g id="SvgjsG1098"><text id="SvgjsText1099" font-family="微软雅黑" text-anchor="middle" font-size="13px" width="455px" fill="#323232" font-weight="400" align="middle" anchor="middle" family="微软雅黑" size="13px" weight="400" font-style="" opacity="1" y="11.949999999999978" transform="rotate(0)"><tspan id="SvgjsTspan1100" dy="16" x="237.5"><tspan id="SvgjsTspan1101" style="text-decoration:;">子应用 View</tspan></tspan></text></g></g><g id="SvgjsG1102" transform="translate(414.1516161550485,157.92734771948437)"><path id="SvgjsPath1103" d="M 0 4Q 0 0 4 0L 96 0Q 100 0 100 4L 100 66Q 100 70 96 70L 4 70Q 0 70 0 66Z" stroke="rgba(50,50,50,1)" stroke-width="2" fill-opacity="1" fill="#ffffff"></path><g id="SvgjsG1104"><text id="SvgjsText1105" font-family="微软雅黑" text-anchor="middle" font-size="13px" width="80px" fill="#323232" font-weight="400" align="middle" anchor="middle" family="微软雅黑" size="13px" weight="400" font-style="" opacity="1" y="9.05" transform="rotate(0)"><tspan id="SvgjsTspan1106" dy="16" x="50"><tspan id="SvgjsTspan1107" style="text-decoration:;">将 model 挂载</tspan></tspan><tspan id="SvgjsTspan1108" dy="16" x="50"><tspan id="SvgjsTspan1109" style="text-decoration:;">在子应用store</tspan></tspan><tspan id="SvgjsTspan1110" dy="16" x="50"><tspan id="SvgjsTspan1111" style="text-decoration:;">上</tspan></tspan></text></g></g><g id="SvgjsG1112"><path id="SvgjsPath1113" d="M348.2855488658063 192.9167524035422L381.2185825104274 192.9167524035422L381.2185825104274 192.92734771948443L414.1516161550485 192.92734771948443" stroke="#323232" stroke-width="2" fill="none" marker-end="url(#SvgjsMarker1114)"></path></g><g id="SvgjsG1116"><path id="SvgjsPath1117" d="M464.1516161550485 227.92734771948437L464.1516161550485 340.57481297264536L463.8644153225805 340.57481297264536L463.8644153225805 453.22227822580635" stroke="#323232" stroke-width="2" fill="none" marker-end="url(#SvgjsMarker1118)"></path></g></svg>