<svg width="33" height="33" viewBox="0 0 45 33" fill="none" xmlns="http://www.w3.org/2000/svg">
  <g clip-path="url(#clip0_313:5149)">
    <path fill-rule="evenodd" clip-rule="evenodd" d="M8.82077 20.2869C7.84759 17.1571 7.96826 13.7894 9.16298 10.7373C10.3577 7.68528 12.5554 5.13057 15.3946 3.4932C18.2339 1.85583 21.5458 1.23326 24.7858 1.72785C28.0259 2.22245 31.0012 3.80476 33.2227 6.21465C32.6618 6.49011 32.0869 6.77654 31.4981 7.07395C29.5368 5.11791 26.9855 3.86287 24.2391 3.5031C21.4926 3.14334 18.7041 3.6989 16.3052 5.08381C13.9063 6.46872 12.0309 8.60573 10.9691 11.1641C9.90725 13.7224 9.71836 16.5594 10.4316 19.236C9.87869 19.5893 9.34174 19.9396 8.82077 20.2869ZM43.0001 3.95552C42.9187 3.93362 42.8319 3.94497 42.7588 3.98705H42.7678C38.5802 5.81962 34.4557 7.78619 30.4005 9.88318L22.5158 6.34639C22.3667 6.28076 22.2043 6.25091 22.0416 6.25923C21.8788 6.26755 21.7203 6.3138 21.5787 6.3943C21.4379 6.47517 21.3182 6.58806 21.2293 6.72383C21.1403 6.8596 21.0846 7.01443 21.0667 7.17575L20.3092 13.9843L16.5366 12.3825C16.3908 12.3202 16.2325 12.2924 16.0742 12.3013C15.9159 12.3102 15.7618 12.3555 15.6238 12.4338C15.4859 12.512 15.3679 12.621 15.279 12.7524C15.1901 12.8837 15.1328 13.0338 15.1114 13.1909L14.2843 19.1357C10.1432 21.7613 6.0918 24.5319 2.13789 27.4428C2.07195 27.4885 2.02557 27.5573 2.00788 27.6355C1.9902 27.7138 2.0025 27.7958 2.04239 27.8654C2.08227 27.935 2.14682 27.9871 2.22327 28.0114C2.29972 28.0357 2.38252 28.0305 2.45528 27.9967C9.62525 24.8383 16.6214 21.2992 23.414 17.3946C30.1928 13.463 36.7563 9.17135 43.0762 4.53797C43.1493 4.49588 43.2026 4.4265 43.2245 4.34508C43.2464 4.26366 43.235 4.17687 43.1929 4.10382C43.1509 4.03076 43.0815 3.97742 43.0001 3.95552ZM16.2939 17.8772C17.4588 17.1567 18.6307 16.4476 19.8093 15.75L16.7731 14.4604L16.2939 17.8772ZM22.0921 14.4179C24.1576 13.2299 26.2431 12.0767 28.3479 10.9589L22.7554 8.45124L22.0921 14.4179ZM33.0779 22.9614C34.458 20.8928 35.1949 18.4621 35.1958 15.9754C35.1964 14.892 35.0565 13.8131 34.7796 12.7657C35.3325 12.4025 35.8694 12.0472 36.3904 11.6998C37.3547 14.8265 37.2285 18.1879 36.0326 21.2335C34.8367 24.2791 32.642 26.8282 29.8079 28.4634C26.9738 30.0986 23.6685 30.7228 20.4333 30.2339C17.198 29.7449 14.2248 28.1717 12.0005 25.7721C12.5534 25.4966 13.1293 25.2102 13.7281 24.9128C15.4934 26.6641 17.7375 27.8538 20.1778 28.3319C22.618 28.81 25.1452 28.5552 27.4408 27.5994C29.7365 26.6437 31.6979 25.0299 33.0779 22.9614ZM41.91 24.3576C42.1531 23.9937 42.2829 23.5659 42.2829 23.1283C42.2829 22.5415 42.0497 21.9787 41.6348 21.5637C41.2198 21.1488 40.6571 20.9157 40.0702 20.9157C39.6326 20.9157 39.2048 21.0454 38.841 21.2886C38.4771 21.5317 38.1935 21.8773 38.026 22.2816C37.8585 22.6859 37.8147 23.1308 37.9001 23.56C37.9855 23.9892 38.1962 24.3834 38.5056 24.6929C38.8151 25.0023 39.2094 25.2131 39.6386 25.2984C40.0678 25.3838 40.5127 25.34 40.917 25.1725C41.3213 25.005 41.6668 24.7214 41.91 24.3576ZM6.98538 7.83743C6.98538 8.05489 6.92084 8.26745 6.79997 8.44822C6.67909 8.62899 6.50733 8.76983 6.30637 8.85291C6.10541 8.93599 5.88431 8.95758 5.67108 8.91493C5.45784 8.87229 5.26203 8.76734 5.10848 8.61337C4.95492 8.45939 4.85051 8.26331 4.80845 8.04996C4.76639 7.83662 4.7886 7.61558 4.87222 7.41485C4.95585 7.21412 5.09715 7.04272 5.27825 6.92234C5.45934 6.80196 5.67207 6.73801 5.88953 6.7386C6.03369 6.7386 6.17644 6.76704 6.30959 6.8223C6.44274 6.87756 6.56367 6.95855 6.66546 7.06063C6.76726 7.1627 6.84792 7.28386 6.90281 7.41715C6.95771 7.55045 6.98577 7.69327 6.98538 7.83743Z" fill="#4ECAFF"/>
  </g>
</svg>